<svg width="84" height="85" viewBox="0 0 84 85" fill="none" xmlns="http://www.w3.org/2000/svg">
<path d="M78.591 53.484L78.629 13.374C78.631 11.6 77.936 9.927 76.674 8.665C75.412 7.404 73.74 6.709 71.966 6.709H60.776V4.402C60.776 1.975 58.801 0 56.374 0H55.767C53.34 0 51.365 1.975 51.365 4.402V6.709H44.019V4.744C44.019 2.317 42.044 0.342 39.617 0.342H39.011C36.584 0.342 34.609 2.317 34.609 4.744V6.709H27.263V4.402C27.263 1.975 25.288 0 22.861 0H22.255C19.828 0 17.853 1.975 17.853 4.402V6.709H6.663C2.989 6.709 0 9.698 0 13.373V70.294C0 73.968 2.989 76.957 6.663 76.957H48.669C48.746 76.957 48.821 76.947 48.894 76.934C52.332 81.782 57.983 84.956 64.365 84.956C74.819 84.956 83.324 76.451 83.324 65.997C83.325 61.205 81.534 56.825 78.591 53.484ZM54.106 4.402C54.106 3.486 54.852 2.74 55.768 2.74H56.375C57.291 2.74 58.037 3.486 58.037 4.402V8.079V11.072C58.037 11.988 57.292 12.734 56.375 12.734H55.769C54.853 12.734 54.107 11.988 54.107 11.072V8.079L54.106 4.402ZM37.349 4.744C37.349 3.828 38.095 3.082 39.011 3.082H39.617C40.533 3.082 41.279 3.828 41.279 4.744V11.415C41.279 12.331 40.533 13.077 39.617 13.077H39.011C38.095 13.077 37.349 12.331 37.349 11.415V4.744ZM20.592 4.402C20.592 3.486 21.338 2.74 22.254 2.74H22.86C23.776 2.74 24.522 3.486 24.522 4.402V8.079V11.072C24.522 11.165 24.509 11.254 24.495 11.343C24.492 11.364 24.493 11.386 24.489 11.407C24.334 12.164 23.663 12.734 22.861 12.734H22.255C21.339 12.734 20.593 11.988 20.593 11.072V8.079L20.592 4.402ZM6.663 9.449H17.852V11.072C17.852 13.499 19.827 15.474 22.254 15.474H22.86C25.287 15.474 27.262 13.499 27.262 11.072V9.449H34.608V11.414C34.608 13.841 36.583 15.816 39.01 15.816H39.616C42.043 15.816 44.018 13.841 44.018 11.414V9.449H51.364V11.072C51.364 13.499 53.339 15.474 55.766 15.474H56.373C58.8 15.474 60.775 13.499 60.775 11.072V9.449H71.964C73.007 9.449 73.99 9.859 74.735 10.603C75.479 11.347 75.888 12.33 75.887 13.371L75.876 24.425H2.74V13.373C2.74 11.209 4.5 9.449 6.663 9.449ZM6.663 74.217C4.5 74.217 2.74 72.457 2.74 70.294V27.165H75.876L75.853 50.928C72.663 48.49 68.682 47.038 64.366 47.038C59.649 47.038 55.332 48.774 52.011 51.635V47.46C52.011 45.783 50.647 44.418 48.969 44.418H43.854C42.177 44.418 40.812 45.782 40.812 47.46V52.575C40.812 54.252 42.176 55.617 43.854 55.617H48.512C46.551 58.601 45.406 62.168 45.406 65.998C45.406 68.941 46.08 71.73 47.282 74.218L6.663 74.217ZM48.969 52.876H43.854C43.691 52.876 43.553 52.738 43.553 52.575V47.46C43.553 47.297 43.691 47.159 43.854 47.159H48.969C49.132 47.159 49.27 47.297 49.27 47.46V52.575C49.27 52.738 49.132 52.876 48.969 52.876ZM64.366 82.216C55.423 82.216 48.147 74.94 48.147 65.997C48.147 57.054 55.423 49.778 64.366 49.778C73.309 49.778 80.585 57.054 80.585 65.997C80.585 74.94 73.309 82.216 64.366 82.216ZM70.515 61.122C71.05 61.657 71.05 62.525 70.515 63.06L63.588 69.987C63.322 70.253 62.971 70.388 62.619 70.388C62.309 70.388 61.997 70.283 61.742 70.07L57.871 66.842C57.29 66.357 57.211 65.493 57.696 64.912C58.182 64.331 59.045 64.253 59.626 64.737L62.535 67.163L68.577 61.121C69.112 60.587 69.98 60.586 70.515 61.122ZM33.798 30.958H28.683C27.006 30.958 25.642 32.322 25.642 33.999V39.114C25.642 40.791 27.006 42.156 28.683 42.156H33.798C35.475 42.156 36.84 40.792 36.84 39.114V33.999C36.839 32.322 35.475 30.958 33.798 30.958ZM34.099 39.114C34.099 39.277 33.961 39.415 33.798 39.415H28.683C28.52 39.415 28.382 39.277 28.382 39.114V33.999C28.382 33.836 28.52 33.699 28.683 33.699H33.798C33.961 33.699 34.099 33.837 34.099 33.999V39.114ZM43.855 42.155H48.97C50.647 42.155 52.012 40.791 52.012 39.113V33.998C52.012 32.321 50.648 30.957 48.97 30.957H43.855C42.178 30.957 40.813 32.321 40.813 33.998V39.113C40.813 40.791 42.177 42.155 43.855 42.155ZM43.554 33.999C43.554 33.836 43.692 33.699 43.855 33.699H48.97C49.133 33.699 49.271 33.837 49.271 33.999V39.114C49.271 39.277 49.133 39.415 48.97 39.415H43.855C43.692 39.415 43.554 39.277 43.554 39.114V33.999ZM59.026 42.155H64.141C65.818 42.155 67.183 40.791 67.183 39.113V33.998C67.183 32.321 65.819 30.957 64.141 30.957H59.026C57.349 30.957 55.984 32.321 55.984 33.998V39.113C55.984 40.791 57.349 42.155 59.026 42.155ZM58.725 33.999C58.725 33.836 58.863 33.699 59.026 33.699H64.141C64.304 33.699 64.442 33.837 64.442 33.999V39.114C64.442 39.277 64.304 39.415 64.141 39.415H59.026C58.863 39.415 58.725 39.277 58.725 39.114V33.999ZM18.627 44.419H13.512C11.835 44.419 10.471 45.783 10.471 47.461V52.576C10.471 54.253 11.835 55.618 13.512 55.618H18.627C20.304 55.618 21.669 54.254 21.669 52.576V47.461C21.668 45.783 20.304 44.419 18.627 44.419ZM18.928 52.575C18.928 52.738 18.79 52.876 18.627 52.876H13.512C13.349 52.876 13.212 52.738 13.212 52.575V47.46C13.212 47.297 13.35 47.159 13.512 47.159H18.627C18.79 47.159 18.928 47.297 18.928 47.46V52.575ZM33.798 44.419H28.683C27.006 44.419 25.642 45.783 25.642 47.461V52.576C25.642 54.253 27.006 55.618 28.683 55.618H33.798C35.475 55.618 36.84 54.254 36.84 52.576V47.461C36.839 45.783 35.475 44.419 33.798 44.419ZM34.099 52.575C34.099 52.738 33.961 52.876 33.798 52.876H28.683C28.52 52.876 28.382 52.738 28.382 52.575V47.46C28.382 47.297 28.52 47.159 28.683 47.159H33.798C33.961 47.159 34.099 47.297 34.099 47.46V52.575ZM18.627 57.881H13.512C11.835 57.881 10.471 59.245 10.471 60.922V66.037C10.471 67.714 11.835 69.079 13.512 69.079H18.627C20.304 69.079 21.669 67.715 21.669 66.037V60.922C21.668 59.245 20.304 57.881 18.627 57.881ZM18.928 66.036C18.928 66.199 18.79 66.337 18.627 66.337H13.512C13.349 66.337 13.212 66.199 13.212 66.036V60.921C13.212 60.758 13.35 60.62 13.512 60.62H18.627C18.79 60.62 18.928 60.758 18.928 60.921V66.036ZM33.798 57.881H28.683C27.006 57.881 25.642 59.245 25.642 60.922V66.037C25.642 67.714 27.006 69.079 28.683 69.079H33.798C35.475 69.079 36.84 67.715 36.84 66.037V60.922C36.839 59.245 35.475 57.881 33.798 57.881ZM34.099 66.036C34.099 66.199 33.961 66.337 33.798 66.337H28.683C28.52 66.337 28.382 66.199 28.382 66.036V60.921C28.382 60.758 28.52 60.62 28.683 60.62H33.798C33.961 60.62 34.099 60.758 34.099 60.921V66.036ZM18.627 30.958H13.512C11.835 30.958 10.471 32.322 10.471 33.999V39.114C10.471 40.791 11.835 42.156 13.512 42.156H18.627C20.304 42.156 21.669 40.792 21.669 39.114V33.999C21.668 32.322 20.304 30.958 18.627 30.958ZM18.928 39.114C18.928 39.277 18.79 39.415 18.627 39.415H13.512C13.349 39.415 13.212 39.277 13.212 39.114V33.999C13.212 33.836 13.35 33.699 13.512 33.699H18.627C18.79 33.699 18.928 33.837 18.928 33.999V39.114Z" fill="#183B65"/>
</svg>
