<svg width="48" height="82" viewBox="0 0 48 82" fill="none" xmlns="http://www.w3.org/2000/svg">
<path d="M45.4263 28.793C49.2466 22.0469 47.5201 14.066 43.5865 10.379C41.2506 8.18371 37.4107 6.81261 33.0945 8.76181C33.3132 8.04306 33.7078 7.33991 34.3054 6.66411L39.7234 2.19531C40.1257 1.86328 40.2781 1.3125 40.1023 0.82031C39.9265 0.32812 39.4578 0 38.9382 0H8.5082C7.98476 0 7.51992 0.32812 7.3441 0.82031C7.16832 1.3125 7.31676 1.86331 7.72301 2.19531L13.1292 6.65621C13.6253 7.2148 13.9808 7.79291 14.2151 8.38281C10.0003 6.60941 6.27371 7.97265 3.99611 10.1172C0.0703089 13.8047 -1.65229 21.7772 2.14841 28.5122C1.28903 30.3716 0.660111 32.3442 0.320311 34.4028C0.105471 35.645 0 36.938 0 38.2348C0 39.4496 0.0976566 40.6801 0.289061 41.8832C0.750001 44.7894 1.75386 47.5551 3.27346 50.0941L17.6995 74.2111L9.22676 78.9299C8.73457 79.2033 8.48848 79.7776 8.63301 80.3244C8.77363 80.8713 9.26582 81.2502 9.83221 81.2502H37.6292C38.1917 81.2502 38.6839 80.8713 38.8284 80.3244C38.969 79.7775 38.7268 79.2072 38.2347 78.9299L29.762 74.2072L44.184 50.0902C45.7074 47.5472 46.7074 44.7855 47.1684 41.8793C47.3637 40.6723 47.4613 39.4457 47.4613 38.2309C47.4613 36.9301 47.352 35.6411 47.141 34.4028C46.8129 32.4419 46.2348 30.563 45.4418 28.7895L45.4263 28.793ZM2.60629 40.449C2.53598 39.7928 2.46957 39.1248 2.46957 38.2342C2.46957 37.1365 2.56332 36.3826 2.62582 35.8475H16.3758C16.8524 35.8475 17.286 35.5741 17.493 35.1483C18.6414 32.7655 21.0868 31.2264 23.7235 31.2264C26.3641 31.2264 28.8133 32.7655 29.9618 35.1483C30.1688 35.578 30.6024 35.8475 31.079 35.8475H44.821C44.8913 36.4413 44.9773 37.1287 44.9773 38.2342C44.9773 39.2615 44.8913 40.0037 44.8406 40.449H31.0785C30.602 40.449 30.1684 40.7225 29.9613 41.1482C28.8129 43.531 26.3675 45.0701 23.723 45.0701C21.0863 45.0701 18.641 43.531 17.4925 41.1482C17.2855 40.7185 16.8519 40.449 16.3754 40.449H2.60629ZM8.55939 23.586C10.8406 21.0469 19.6144 13.8672 16.3328 7.01201H31.1098C29.6332 10.0979 30.6528 13.3362 32.3871 16.137C32.4769 16.3792 32.5746 16.4768 32.6605 16.5706C36.7699 22.8518 42.2738 24.5862 44.3875 33.3716H31.8135C30.1377 30.5396 27.0401 28.7505 23.7197 28.7505C20.4033 28.7505 17.3095 30.5396 15.6338 33.3716H3.05583C3.94255 29.6802 5.81363 26.3325 8.55583 23.5864L8.55939 23.586ZM7.24299 21.3829C6.95393 18.9571 7.69221 16.7149 8.83279 15.6407C9.19607 15.297 10.2195 14.3438 12.364 15.7462C10.7312 18.0274 8.67269 19.9728 7.24299 21.3829ZM40.352 21.5392C40.141 21.3282 39.8989 21.0899 39.6137 20.8126C38.0121 19.2579 36.4614 17.6251 35.2504 15.9845C37.3793 14.6212 38.3871 15.5704 38.7504 15.9142C39.8676 16.9611 40.602 19.1564 40.352 21.5431L40.352 21.5392ZM41.895 12.1837C44.8559 14.961 46.2583 20.7618 44.0161 26.0857C43.5317 25.3044 42.9888 24.5584 42.4145 23.8396C43.6254 19.7888 42.395 15.9294 40.4536 14.1091C39.3677 13.0857 37.1528 11.8357 33.9263 13.902C33.5161 13.1247 33.2075 12.3551 33.0357 11.5934C37.6685 8.80433 40.9654 11.3122 41.899 12.1833L41.895 12.1837ZM35.4888 2.47666L32.9927 4.53526H14.4497L11.9536 2.47666H35.4888ZM5.68779 11.9181C6.60967 11.0509 9.87529 8.56256 14.469 11.2813C14.3323 12.0548 14.0471 12.8438 13.6526 13.6329C10.4338 11.5626 8.22288 12.8087 7.12918 13.8322C5.21508 15.633 3.96118 19.6017 5.18778 23.633C4.60575 24.3439 4.06668 25.0822 3.57838 25.8518C1.31668 20.5237 2.719 14.7038 5.68388 11.9138L5.68779 11.9181ZM14.5901 78.7731L19.7346 75.9059H27.7112L32.8557 78.7731H14.5901ZM42.0471 48.8201L27.3281 73.4291H20.1133L5.39429 48.8201C4.28879 46.9724 3.49589 44.9959 3.01539 42.9256H15.6364C17.3122 45.7576 20.4059 47.5467 23.7223 47.5467C27.0426 47.5467 30.1364 45.7576 31.8161 42.9256H44.4291C43.9486 44.9959 43.1557 46.9725 42.0502 48.8201H42.0471Z" fill="#183B65"/>
</svg>
