<svg width="66" height="46" viewBox="0 0 66 46" fill="none" xmlns="http://www.w3.org/2000/svg">
<path d="M45.5 39.6915H21.2979C20.7631 39.6915 20.3298 39.2582 20.3298 38.7234C20.3298 38.1886 20.7631 37.7553 21.2979 37.7553H45.5C46.0348 37.7553 46.4681 38.1886 46.4681 38.7234C46.4681 39.2582 46.0348 39.6915 45.5 39.6915Z" fill="#183B65"/>
<path d="M60.9894 39.6915H57.117C56.5823 39.6915 56.1489 39.2582 56.1489 38.7234C56.1489 38.1886 56.5823 37.7553 57.117 37.7553H60.9894C62.5907 37.7553 63.8936 36.4524 63.8936 34.8511V22.3847C63.8936 21.05 62.9892 19.8918 61.6941 19.5677L58.7792 18.8389C57.2944 18.4677 56.06 17.4011 55.4773 15.9861L51.4202 6.13327C50.3704 3.58359 47.9108 1.93617 45.1541 1.93617H8.71277C4.97622 1.93617 1.93617 4.97622 1.93617 8.71277V30.9787C1.93617 34.7153 4.97622 37.7553 8.71277 37.7553H9.68085C10.2156 37.7553 10.6489 38.1886 10.6489 38.7234C10.6489 39.2582 10.2156 39.6915 9.68085 39.6915H8.71277C3.90848 39.6915 0 35.783 0 30.9787V8.71277C0 3.90848 3.90848 0 8.71277 0H45.1541C48.6986 0 51.8608 2.11804 53.2105 5.39611L57.2677 15.2489C57.6173 16.098 58.3578 16.7378 59.2489 16.9606L62.164 17.6894C64.3224 18.2294 65.8298 20.1602 65.8298 22.3847V34.8511C65.8298 37.5201 63.6584 39.6915 60.9894 39.6915Z" fill="#183B65"/>
<path d="M57.898 18.3936H46.7908C44.4776 18.3936 42.5958 16.5118 42.5958 14.1986V9.03546C42.5958 6.72225 44.4776 4.84042 46.7908 4.84042H52.3334C52.8682 4.84042 53.3015 5.27374 53.3015 5.80851C53.3015 6.34328 52.8682 6.77659 52.3334 6.77659H46.7908C45.5453 6.77659 44.5319 7.78999 44.5319 9.03546V14.1986C44.5319 15.4441 45.5453 16.4574 46.7908 16.4574H57.898C58.4327 16.4574 58.866 16.8908 58.866 17.4255C58.866 17.9603 58.4326 18.3936 57.898 18.3936Z" fill="#183B65"/>
<path d="M38.7234 30.0106C38.1886 30.0106 37.7553 29.5773 37.7553 29.0426V0.968085C37.7553 0.433315 38.1886 0 38.7234 0C39.2582 0 39.6915 0.433315 39.6915 0.968085V29.0426C39.6915 29.5773 39.2582 30.0106 38.7234 30.0106Z" fill="#183B65"/>
<path d="M45.5 22.2659H43.5638C43.0291 22.2659 42.5958 21.8326 42.5958 21.2979C42.5958 20.7631 43.0291 20.3298 43.5638 20.3298H45.5C46.0348 20.3298 46.4681 20.7631 46.4681 21.2979C46.4681 21.8326 46.0348 22.2659 45.5 22.2659Z" fill="#183B65"/>
<path d="M15.4894 45.5C11.7528 45.5 8.71277 42.46 8.71277 38.7234C8.71277 34.9869 11.7528 31.9468 15.4894 31.9468C19.2259 31.9468 22.266 34.9869 22.266 38.7234C22.266 42.46 19.2259 45.5 15.4894 45.5ZM15.4894 33.883C12.8203 33.883 10.6489 36.0543 10.6489 38.7234C10.6489 41.3925 12.8203 43.5638 15.4894 43.5638C18.1584 43.5638 20.3298 41.3925 20.3298 38.7234C20.3298 36.0543 18.1584 33.883 15.4894 33.883Z" fill="#183B65"/>
<path d="M51.3085 45.5C47.572 45.5 44.5319 42.46 44.5319 38.7234C44.5319 34.9869 47.572 31.9468 51.3085 31.9468C55.0451 31.9468 58.0851 34.9869 58.0851 38.7234C58.0851 42.46 55.0451 45.5 51.3085 45.5ZM51.3085 33.883C48.6394 33.883 46.4681 36.0543 46.4681 38.7234C46.4681 41.3925 48.6394 43.5638 51.3085 43.5638C53.9776 43.5638 56.1489 41.3925 56.1489 38.7234C56.1489 36.0543 53.9776 33.883 51.3085 33.883Z" fill="#183B65"/>
<path d="M64.8617 30.0106H0.968085C0.433315 30.0106 0 29.5773 0 29.0425C0 28.5078 0.433315 28.0745 0.968085 28.0745H64.8617C65.3965 28.0745 65.8298 28.5078 65.8298 29.0425C65.8298 29.5773 65.3965 30.0106 64.8617 30.0106Z" fill="#183B65"/>
<path d="M23.1402 26.1383H16.5512C14.6311 26.1383 13.069 24.5762 13.069 22.6562C13.069 19.6884 14.09 16.7776 15.944 14.4602C17.946 11.9573 21.7494 11.9624 23.7471 14.4604C25.6011 16.7776 26.6221 19.6884 26.6221 22.6562C26.6224 24.5762 25.0602 26.1383 23.1402 26.1383ZM17.456 15.6698C15.8757 17.6454 15.0053 20.1264 15.0053 22.6563C15.0053 23.5087 15.6989 24.2023 16.5513 24.2023H23.1403C23.9928 24.2023 24.6863 23.5087 24.6863 22.6563C24.6863 20.1264 23.8159 17.6454 22.2356 15.6699C21.0091 14.1368 18.6799 14.14 17.456 15.6698Z" fill="#183B65"/>
<path d="M19.8457 10.6489C18.2444 10.6489 16.9415 9.12905 16.9415 7.26064C16.9415 5.39224 18.2444 3.87234 19.8457 3.87234C21.4471 3.87234 22.75 5.39224 22.75 7.26064C22.75 9.12905 21.4471 10.6489 19.8457 10.6489ZM19.8457 5.80852C19.3301 5.80852 18.8776 6.48708 18.8776 7.26064C18.8776 8.03421 19.3301 8.71277 19.8457 8.71277C20.3614 8.71277 20.8138 8.03421 20.8138 7.26064C20.8138 6.48708 20.3614 5.80852 19.8457 5.80852Z" fill="#183B65"/>
<path d="M25.026 13.1922C23.6503 12.3725 23.309 10.3999 24.2651 8.79485C24.7081 8.05136 25.3668 7.48639 26.12 7.20397C27.8364 6.56064 29.5209 7.57093 29.7712 9.37919C29.8814 10.176 29.6983 11.0243 29.2553 11.7679C28.3206 13.3365 26.4308 14.029 25.026 13.1922ZM25.9285 9.78591C25.5326 10.4504 25.574 11.2649 26.0171 11.5289C26.4603 11.7933 27.1961 11.4413 27.592 10.7768C27.9147 10.2355 28.0228 9.34331 27.5034 9.03391C26.9977 8.73238 26.2657 9.21965 25.9285 9.78591Z" fill="#183B65"/>
<path d="M13.346 13.5494C12.25 13.5494 11.1097 12.8982 10.4362 11.7678C9.99319 11.0242 9.81003 10.1759 9.92027 9.37906C10.1709 7.56758 11.8588 6.56168 13.5715 7.20384C14.3247 7.48626 14.9833 8.05137 15.4263 8.79473C16.3824 10.3999 16.0413 12.3725 14.6654 13.192C14.2586 13.4346 13.8062 13.5494 13.346 13.5494ZM12.0995 10.7767C12.4952 11.4411 13.2314 11.7931 13.6744 11.5287C14.1175 11.2648 14.1588 10.4503 13.7629 9.78579C13.1911 8.82532 11.9868 8.57258 11.8381 9.64432C11.7887 10.0021 11.8838 10.4148 12.0995 10.7767Z" fill="#183B65"/>
</svg>
