<svg width="54" height="78" viewBox="0 0 54 78" fill="none" xmlns="http://www.w3.org/2000/svg">
<path d="M52.3835 37.3796C50.3523 30.0788 46.8952 25.3406 42.1025 18.7706C37.2744 12.1417 31.6725 5.91863 25.4615 0.270632C25.1529 -0.0106182 24.6803 -0.080928 24.3131 0.098752C23.9225 0.278442 23.692 0.676872 23.7115 1.09875C23.9811 6.79015 22.8834 11.8178 20.442 16.0288C19.4029 17.8179 18.6334 18.6304 17.0709 20.2397C15.9615 21.3803 14.4498 22.9506 12.2506 25.5014C6.60225 32.0795 3.77015 35.3803 1.89865 40.1734C0.648646 43.3648 0.00804667 46.8453 0.000246671 50.5324C-0.0192843 55.1535 1.12135 59.591 3.30105 63.3414C8.21125 71.8102 17.16 77.1034 26.563 77.2714C26.7115 77.2714 26.8443 77.2831 26.9927 77.2831C27.274 77.2831 27.5513 77.2714 27.8326 77.2635C28.2115 77.2518 28.6021 77.2323 28.9732 77.2128C38.7935 76.4745 47.5042 70.2636 51.7032 61.0018C52.754 58.6932 53.422 56.1112 53.6915 53.3221C54.2423 47.8416 53.7891 42.4941 52.3829 37.3811L52.3835 37.3796ZM10.8835 61.3206C10.2429 57.3714 10.3054 53.4612 11.0554 49.6916C12.2546 43.7111 14.8835 39.5896 17.4265 35.6216C19.2273 32.8013 21.2663 30.1333 23.4968 27.6411C26.2351 31.2192 29.0866 34.7192 31.9773 38.0511C33.1765 39.4222 34.2664 40.6409 35.2664 41.762C39.7352 46.762 42.1961 49.5237 43.118 54.012C43.5985 56.3401 43.5985 58.7932 43.118 61.3206C41.8875 68.8909 35.5985 74.5826 28.138 75.1296C28.0481 75.1296 27.9583 75.1413 27.8685 75.1413H27.8567C27.4466 75.1609 27.0481 75.1804 26.6262 75.1726C26.5872 75.1726 26.5481 75.1609 26.5051 75.1609C18.7004 74.9421 12.1335 69.1294 10.8835 61.3206ZM51.6105 53.1097C51.3605 55.68 50.7511 58.0394 49.8019 60.1292C47.8136 64.5198 44.7121 68.1683 40.9621 70.7702C43.1223 68.2507 44.634 65.1413 45.1926 61.6921C45.7121 58.9226 45.7121 56.2038 45.1809 53.5905C44.1418 48.5514 41.3918 45.4616 36.8293 40.3715C35.8293 39.2621 34.7395 38.0434 33.5598 36.6801C30.4192 33.0707 27.3489 29.2699 24.4114 25.3791C24.2317 25.1409 23.9426 24.9807 23.6301 24.969C23.3294 24.9494 23.0208 25.0588 22.8098 25.2971C20.1496 28.1174 17.7512 31.219 15.6496 34.4963C13.1301 38.4455 10.2785 42.926 9.00123 49.2973C8.20045 53.309 8.14186 57.4692 8.82154 61.6683C9.39185 65.1488 10.8801 68.2894 13.0403 70.8089C9.86064 68.6487 7.13014 65.7581 5.11844 62.2894C3.11844 58.8597 2.07934 54.7894 2.09894 50.5514C2.11066 47.1217 2.7005 43.8912 3.84894 40.942C5.58724 36.4811 8.34894 33.2701 13.8372 26.872C15.9856 24.3603 17.4778 22.8212 18.5677 21.7001C20.138 20.0907 21.0872 19.1103 22.2474 17.0907C24.5365 13.161 25.7279 8.59069 25.8372 3.48869C31.2356 8.59809 36.1262 14.1367 40.4072 20.0197C45.0674 26.4103 48.4267 31.0317 50.3564 37.9497C51.7119 42.7895 52.1339 47.9028 51.6105 53.1097Z" fill="#183B65"/>
<path d="M27.2505 64.2006L32.8911 58.1811C34.8208 56.1108 34.8208 52.7709 32.8911 50.7123C31.9418 49.6811 30.6606 49.1342 29.2895 49.1342C28.1489 49.1342 27.0786 49.5249 26.1997 50.2436C25.3208 49.5249 24.2388 49.1342 23.0981 49.1342C21.7387 49.1342 20.4575 49.6928 19.4965 50.7123C17.5668 52.7709 17.5668 56.1107 19.4965 58.1811L25.1449 64.2123C25.4144 64.4936 25.7933 64.6616 26.1957 64.6616C26.6019 64.6733 26.9809 64.5014 27.2505 64.2006ZM21.0317 56.7514C19.8715 55.5014 19.8715 53.392 21.0317 52.1498C21.5903 51.56 22.3208 51.2397 23.102 51.2397C23.8832 51.2397 24.6137 51.5678 25.1723 52.1498C25.4418 52.4389 25.8207 52.5991 26.2114 52.5991C26.602 52.5991 26.9809 52.4272 27.2426 52.1498C27.8012 51.56 28.5317 51.2397 29.3129 51.2397C30.0941 51.2397 30.8246 51.5678 31.3832 52.1498C32.5434 53.3998 32.5434 55.5092 31.3832 56.7514L26.223 62.2709L21.0317 56.7514Z" fill="#183B65"/>
</svg>
