<svg width="60" height="96" viewBox="0 0 60 96" fill="none" xmlns="http://www.w3.org/2000/svg">
<path d="M29.8908 16.1835C33.6681 16.1835 37.0939 17.7187 39.5822 20.203L39.5939 20.2147C42.0744 22.6991 43.6095 26.1288 43.6095 29.9022C43.6095 33.6795 42.0743 37.1092 39.59 39.5936L39.5783 39.6053C37.0939 42.0858 33.6642 43.6209 29.8908 43.6209C26.1135 43.6209 22.6838 42.0857 20.1994 39.6014L20.1877 39.5897C17.7072 37.1053 16.1721 33.6756 16.1721 29.9022C16.1721 26.1249 17.7112 22.6913 20.1955 20.2069C22.6721 17.7225 26.1057 16.1835 29.8908 16.1835ZM34.7385 71.6525C34.7815 71.5743 34.8323 71.504 34.8869 71.4337L36.8517 68.5314C45.4728 55.8084 55.7897 40.5784 55.7897 29.6524C55.7311 22.5586 52.8053 16.1444 48.1217 11.5044C43.4498 6.87162 37.0087 4.00832 29.8947 4.00832C22.7814 4.00832 16.3397 6.87162 11.6677 11.5044C7.01934 16.1138 4.10524 22.4694 3.99584 29.5004L4.00365 29.6528C4.00365 40.5788 14.3197 55.8088 22.9377 68.5318L24.8986 71.4341C24.9532 71.5044 25.0079 71.5825 25.0509 71.6606C26.8165 74.2856 28.4689 76.7778 29.8947 79.0903C31.3244 76.7778 32.9728 74.2817 34.7424 71.6528L34.7385 71.6525ZM39.8401 71.2228C43.637 72.0314 46.9456 73.2931 49.4612 74.8634C52.926 77.0314 54.9768 79.8361 54.9768 82.9884C54.9768 86.8087 51.9495 90.129 47.0588 92.4142C42.6252 94.4845 36.5508 95.7658 29.8948 95.7658C23.2388 95.7658 17.1648 94.4846 12.7308 92.4142C7.8402 90.133 4.8128 86.8087 4.8128 82.9884C4.8128 79.8361 6.8636 77.0314 10.3284 74.8634C12.8401 73.2892 16.1526 72.0275 19.9495 71.2189L19.637 70.7579C10.6995 57.5629 0 41.7699 0 29.6449L0.0117207 29.434C0.136721 21.3129 3.49612 13.981 8.85552 8.668C14.2617 3.3086 21.6995 0 29.8985 0C38.0975 0 45.5355 3.3086 50.9415 8.668C56.3438 14.0196 59.7149 21.434 59.7892 29.629V29.6446C59.797 41.7656 49.0982 57.5626 40.1562 70.7576L39.8476 71.2147L39.8401 71.2228ZM22.3751 74.8205C18.3399 75.5002 14.8907 76.7033 12.4337 78.2385C10.1603 79.6604 8.8126 81.3127 8.8126 82.9885C8.8126 85.1213 10.9532 87.1877 14.4142 88.8049C18.3322 90.633 23.8009 91.7658 29.8912 91.7658C35.9815 91.7658 41.4532 90.633 45.3682 88.8049C48.8291 87.1877 50.9698 85.1213 50.9698 82.9885C50.9698 81.3166 49.6221 79.6643 47.3487 78.2385C44.8917 76.6994 41.4464 75.5002 37.4073 74.8205C35.1612 78.1721 33.1456 81.2697 31.6261 83.965C31.087 84.922 29.8722 85.2619 28.9152 84.7228C28.5832 84.5353 28.3254 84.2697 28.1535 83.9572C26.6301 81.2619 24.6183 78.1642 22.3762 74.8166L22.3751 74.8205ZM36.7701 23.0275C35.0162 21.2697 32.5826 20.1877 29.8951 20.1877C27.2115 20.1877 24.7779 21.2775 23.024 23.0315C21.2623 24.7815 20.1802 27.2151 20.1802 29.9026C20.1802 32.5901 21.2661 35.0237 23.02 36.7737C24.7778 38.5354 27.2075 39.6175 29.8989 39.6175C32.5864 39.6175 35.0161 38.5316 36.77 36.7777C38.5317 35.0199 39.6138 32.5902 39.6138 29.8988C39.6138 27.2113 38.5279 24.7777 36.774 23.0238L36.7701 23.0275Z" fill="#A1A3BD"/>
</svg>
