<svg width="85" height="74" viewBox="0 0 85 74" fill="none" xmlns="http://www.w3.org/2000/svg">
<path d="M24.5207 6.89497C25.803 6.89497 26.8399 7.93226 26.84 9.21333C26.84 10.4931 25.8045 11.5385 24.5207 11.5385C23.2391 11.5383 22.1984 10.4941 22.1984 9.21333C22.1986 7.93134 23.2406 6.89516 24.5207 6.89497Z" fill="#235A6D" stroke="#235A6D" stroke-width="0.7"/>
<mask id="path-2-outside-1_85_826" maskUnits="userSpaceOnUse" x="0" y="0" width="85" height="74" fill="black">
<rect fill="white" width="85" height="74"/>
<path fill-rule="evenodd" clip-rule="evenodd" d="M13.9691 24.8646C17.1621 27.9736 18.9531 33.1616 18.3131 35.9166C17.9641 37.3176 17.8241 38.8336 18.1571 40.2496C18.4901 41.6726 19.4061 43.0416 20.9691 43.6506C24.8381 45.1666 28.1881 46.9476 30.6101 49.4016C30.6411 50.2866 30.5671 51.2026 30.3491 52.1726L27.4581 64.1456C26.0011 64.6926 24.6411 65.3746 23.8131 66.5366C23.0101 67.6516 22.5681 69.0116 22.4221 70.5166L14.7811 70.5216C14.7811 69.2606 15.6931 68.1616 16.7611 68.0736L18.4061 68.9946C19.7861 69.7656 20.8341 67.6456 19.4111 66.9636C15.7711 65.2186 14.4111 61.9996 14.8431 59.3686C15.2711 56.7336 17.3751 54.4936 21.7801 54.4936C23.3171 54.5246 23.3171 52.2016 21.7801 52.2286C16.5361 52.2286 13.2031 55.3216 12.6041 59.0046C12.2031 61.4676 12.9791 64.1296 14.8431 66.2756C13.2231 67.0406 12.0421 68.6346 11.6981 70.5206H5.19307C5.61007 69.4366 5.90607 68.1496 6.97407 68.0616C7.42207 68.0246 7.80707 67.7286 7.95307 67.3006C10.0891 61.0456 9.33807 58.2236 8.74507 55.8846C8.15207 53.5456 7.66807 51.6086 10.1411 45.3326C10.1461 45.3216 10.1521 45.3116 10.1571 45.2966C10.5101 44.2806 10.4331 43.0926 9.75607 42.2336C9.08407 41.3736 8.02107 40.9096 6.69307 40.6606C5.10507 40.3636 4.54207 40.0516 4.25007 39.7076C3.95807 39.3686 3.76607 38.6666 3.41107 37.3686C3.11907 36.2806 3.48407 35.9886 4.14607 35.5676C5.47907 34.7186 6.31307 33.4316 6.79707 32.2396C7.29207 30.9996 8.72007 29.8386 10.1721 29.4476C10.7771 29.2916 11.1361 28.6666 10.9751 28.0626C10.7401 27.1876 10.9641 26.6556 11.1521 26.2916L12.3961 27.5246C13.1991 28.7076 14.6631 27.8486 13.9911 26.5816C13.5161 25.8966 13.6141 25.2246 13.9691 24.8646ZM29.0891 3.27659C31.2091 3.29259 33.2451 3.86459 34.6101 4.88059C35.8291 5.78759 36.8181 7.95959 38.3021 9.92759L41.9431 14.7446C43.2711 16.5006 43.5621 17.9736 43.3901 19.1836C43.2141 20.3916 42.5211 21.4026 41.6301 22.0996C40.7391 22.7926 39.6571 23.1266 38.9011 23.0586C38.1461 22.9906 37.7341 22.7666 37.5051 21.8506L34.7811 10.9596C34.4171 9.49059 32.2141 10.0366 32.5781 11.5066L35.3021 22.3916C35.7341 24.1206 37.2031 25.1836 38.7031 25.3186C40.1981 25.4496 41.7341 24.8916 43.0261 23.8866C43.5011 23.5176 43.9431 23.0746 44.3231 22.5786C45.3431 23.0316 46.1191 23.7256 46.9381 24.6986L65.7341 47.0786C69.8291 51.9546 69.5371 59.7776 68.0011 65.5176C67.7971 66.2776 68.4061 67.0066 69.1881 66.9446C72.6311 66.6526 75.6251 64.5486 78.0481 60.2456C78.2771 59.8406 78.5431 59.6936 78.9121 59.6366C79.2771 59.5756 79.7611 59.6686 80.1881 59.9086C81.0431 60.3926 81.6411 61.2366 81.0951 62.6366C80.2981 64.6636 77.8301 66.9656 74.8601 68.3246C71.8871 69.6846 68.5011 70.1216 65.9391 69.0326C65.5681 68.8766 65.1421 68.9236 64.8191 69.1686C63.7041 70.0076 62.1521 70.5236 60.4021 70.5236L39.9911 70.5186C40.5741 68.1066 42.4541 66.0236 44.8241 65.7266C45.5531 66.3036 46.3651 66.8306 47.2721 67.2836C48.6251 67.9556 49.6361 65.9236 48.2811 65.2516C43.9331 63.0796 42.2401 59.1996 42.7661 55.9506C42.8341 55.5596 42.9271 55.1746 43.0471 54.8146C43.9381 52.0856 46.5261 49.9616 51.1761 49.9616C52.7551 50.0286 52.7551 47.6226 51.1761 47.6946C45.6091 47.6946 41.9471 50.6746 40.8071 54.4456L33.9581 67.2626C33.4431 68.2316 33.0421 69.1476 32.6051 69.7106C32.1681 70.2736 31.8491 70.5186 31.0211 70.5186H24.9331C25.0841 69.5386 25.1881 68.5136 25.6571 67.8616C26.3241 66.9296 27.3021 66.2526 28.7721 65.8576C29.1771 65.7526 29.4851 65.4296 29.5841 65.0246L32.5681 52.6856C32.9121 51.2466 32.9171 49.8366 32.8031 48.5186C32.5541 45.5336 31.3301 42.8936 30.1721 40.2426C28.5111 36.4346 26.9281 32.5496 27.7451 26.9036C28.2141 23.6686 25.7971 20.5546 22.4961 19.9286L13.2611 17.9496C12.2811 17.7416 11.9531 16.8296 11.8291 16.0536C11.6681 15.0226 11.9851 13.8606 12.8651 13.1216C12.9961 13.0126 13.5161 12.7096 14.1571 12.4286C14.7921 12.1416 15.5621 11.8406 16.3341 11.5126C17.1051 11.1846 17.8861 10.8766 18.5261 10.4496C19.3701 9.88659 19.9631 9.48059 20.2031 8.70959C20.7551 6.91259 21.8701 5.56959 23.4791 4.64659C25.0891 3.72459 27.1141 3.25559 29.0891 3.27659ZM29.1101 1.00059C26.7711 0.979592 24.3751 1.51659 22.3491 2.67759C20.5781 3.68859 19.0841 5.20859 18.3131 7.21859C18.0571 7.87959 17.8381 8.17759 17.3761 8.49459C16.9011 8.81759 16.1771 9.10959 15.4391 9.42159C14.7041 9.73459 13.9341 10.0466 13.2351 10.3586C12.5321 10.6716 11.9281 10.9476 11.4121 11.3856C9.84907 12.6926 9.32907 14.6666 9.58407 16.3906C9.84407 18.1146 10.9481 19.7866 12.7871 20.1716L22.0681 22.1506C24.1631 22.5936 25.7721 24.7136 25.5011 26.5776C24.6001 32.7926 26.4121 37.3016 28.0941 41.1506C28.8131 42.8066 29.4851 44.3276 29.9581 45.8496C27.5781 44.0736 24.7861 42.7136 21.7861 41.5416C20.9581 41.2186 20.5211 40.6616 20.3651 39.7346C20.1681 38.5676 20.2921 37.4066 20.5211 36.4316C21.4901 32.3166 19.2811 26.7236 15.4381 23.0766C14.9171 22.5816 14.1411 22.3956 13.5261 22.5766C12.5371 22.8686 12.1981 23.3896 12.0371 24.1876C11.8081 23.7916 11.2811 23.5676 10.8541 23.6396C10.1871 23.7546 9.71407 24.1506 9.35907 24.6306C8.79107 25.3956 8.78007 26.6096 8.90007 27.8336C7.13507 28.5366 5.41107 29.6146 4.69207 31.4016C4.33707 32.2766 3.70807 33.1926 2.98407 33.6206C2.35907 33.9896 1.70307 34.4166 1.31707 35.1926C0.932066 35.9686 0.900066 36.8966 1.20807 37.9166C1.57707 39.1456 1.86407 40.3856 2.52007 41.1776C3.30707 42.0936 4.49507 42.5576 6.27107 42.8906C7.28607 43.0826 7.79107 43.4156 7.96807 43.6346C8.14007 43.8586 8.19207 44.0306 8.01507 44.5466C5.45807 51.0516 5.93207 54.0356 6.54707 56.4426C7.14607 58.8116 7.74407 60.6556 5.85907 66.3276C3.64607 67.0726 2.11007 69.1196 2.11007 71.6506C2.10507 72.2756 2.61007 72.7866 3.23907 72.7866L31.0201 72.7816C32.5151 72.7816 33.6871 72.0106 34.3951 71.0986C35.1041 70.1876 35.5101 69.1716 35.9581 68.3276L40.7031 59.4476C41.0781 60.9886 41.8181 62.4886 42.9111 63.8386C39.6981 64.9476 37.2551 68.0626 37.2551 71.6506C37.2501 72.2816 37.7601 72.7916 38.3901 72.7866H60.4011C62.3491 72.7866 64.0571 72.1146 65.5321 71.1776C68.8191 72.3746 72.5681 71.8646 75.8031 70.3806C79.1881 68.8286 82.0741 66.3556 83.2041 63.4646C84.1311 61.1046 82.9801 58.8756 81.3081 57.9276C80.4751 57.4546 79.5051 57.2406 78.5431 57.3966C77.5791 57.5576 76.6261 58.1616 76.0741 59.1406C74.2821 62.3236 72.4451 63.5776 70.3911 64.1616C71.6581 58.2186 71.8911 50.8746 67.4751 45.6146L48.6721 23.2356C47.7771 22.1626 46.7351 21.1986 45.3811 20.5586C45.4851 20.2256 45.5781 19.8756 45.6301 19.5116C45.9011 17.6566 45.3591 15.5166 43.7501 13.3806C42.5421 11.7766 41.3231 10.1676 40.1101 8.55759C38.8651 6.91659 37.9471 4.54159 35.9691 3.06859C34.0891 1.67259 31.6141 1.02159 29.1101 1.00059Z"/>
</mask>
<path fill-rule="evenodd" clip-rule="evenodd" d="M13.9691 24.8646C17.1621 27.9736 18.9531 33.1616 18.3131 35.9166C17.9641 37.3176 17.8241 38.8336 18.1571 40.2496C18.4901 41.6726 19.4061 43.0416 20.9691 43.6506C24.8381 45.1666 28.1881 46.9476 30.6101 49.4016C30.6411 50.2866 30.5671 51.2026 30.3491 52.1726L27.4581 64.1456C26.0011 64.6926 24.6411 65.3746 23.8131 66.5366C23.0101 67.6516 22.5681 69.0116 22.4221 70.5166L14.7811 70.5216C14.7811 69.2606 15.6931 68.1616 16.7611 68.0736L18.4061 68.9946C19.7861 69.7656 20.8341 67.6456 19.4111 66.9636C15.7711 65.2186 14.4111 61.9996 14.8431 59.3686C15.2711 56.7336 17.3751 54.4936 21.7801 54.4936C23.3171 54.5246 23.3171 52.2016 21.7801 52.2286C16.5361 52.2286 13.2031 55.3216 12.6041 59.0046C12.2031 61.4676 12.9791 64.1296 14.8431 66.2756C13.2231 67.0406 12.0421 68.6346 11.6981 70.5206H5.19307C5.61007 69.4366 5.90607 68.1496 6.97407 68.0616C7.42207 68.0246 7.80707 67.7286 7.95307 67.3006C10.0891 61.0456 9.33807 58.2236 8.74507 55.8846C8.15207 53.5456 7.66807 51.6086 10.1411 45.3326C10.1461 45.3216 10.1521 45.3116 10.1571 45.2966C10.5101 44.2806 10.4331 43.0926 9.75607 42.2336C9.08407 41.3736 8.02107 40.9096 6.69307 40.6606C5.10507 40.3636 4.54207 40.0516 4.25007 39.7076C3.95807 39.3686 3.76607 38.6666 3.41107 37.3686C3.11907 36.2806 3.48407 35.9886 4.14607 35.5676C5.47907 34.7186 6.31307 33.4316 6.79707 32.2396C7.29207 30.9996 8.72007 29.8386 10.1721 29.4476C10.7771 29.2916 11.1361 28.6666 10.9751 28.0626C10.7401 27.1876 10.9641 26.6556 11.1521 26.2916L12.3961 27.5246C13.1991 28.7076 14.6631 27.8486 13.9911 26.5816C13.5161 25.8966 13.6141 25.2246 13.9691 24.8646ZM29.0891 3.27659C31.2091 3.29259 33.2451 3.86459 34.6101 4.88059C35.8291 5.78759 36.8181 7.95959 38.3021 9.92759L41.9431 14.7446C43.2711 16.5006 43.5621 17.9736 43.3901 19.1836C43.2141 20.3916 42.5211 21.4026 41.6301 22.0996C40.7391 22.7926 39.6571 23.1266 38.9011 23.0586C38.1461 22.9906 37.7341 22.7666 37.5051 21.8506L34.7811 10.9596C34.4171 9.49059 32.2141 10.0366 32.5781 11.5066L35.3021 22.3916C35.7341 24.1206 37.2031 25.1836 38.7031 25.3186C40.1981 25.4496 41.7341 24.8916 43.0261 23.8866C43.5011 23.5176 43.9431 23.0746 44.3231 22.5786C45.3431 23.0316 46.1191 23.7256 46.9381 24.6986L65.7341 47.0786C69.8291 51.9546 69.5371 59.7776 68.0011 65.5176C67.7971 66.2776 68.4061 67.0066 69.1881 66.9446C72.6311 66.6526 75.6251 64.5486 78.0481 60.2456C78.2771 59.8406 78.5431 59.6936 78.9121 59.6366C79.2771 59.5756 79.7611 59.6686 80.1881 59.9086C81.0431 60.3926 81.6411 61.2366 81.0951 62.6366C80.2981 64.6636 77.8301 66.9656 74.8601 68.3246C71.8871 69.6846 68.5011 70.1216 65.9391 69.0326C65.5681 68.8766 65.1421 68.9236 64.8191 69.1686C63.7041 70.0076 62.1521 70.5236 60.4021 70.5236L39.9911 70.5186C40.5741 68.1066 42.4541 66.0236 44.8241 65.7266C45.5531 66.3036 46.3651 66.8306 47.2721 67.2836C48.6251 67.9556 49.6361 65.9236 48.2811 65.2516C43.9331 63.0796 42.2401 59.1996 42.7661 55.9506C42.8341 55.5596 42.9271 55.1746 43.0471 54.8146C43.9381 52.0856 46.5261 49.9616 51.1761 49.9616C52.7551 50.0286 52.7551 47.6226 51.1761 47.6946C45.6091 47.6946 41.9471 50.6746 40.8071 54.4456L33.9581 67.2626C33.4431 68.2316 33.0421 69.1476 32.6051 69.7106C32.1681 70.2736 31.8491 70.5186 31.0211 70.5186H24.9331C25.0841 69.5386 25.1881 68.5136 25.6571 67.8616C26.3241 66.9296 27.3021 66.2526 28.7721 65.8576C29.1771 65.7526 29.4851 65.4296 29.5841 65.0246L32.5681 52.6856C32.9121 51.2466 32.9171 49.8366 32.8031 48.5186C32.5541 45.5336 31.3301 42.8936 30.1721 40.2426C28.5111 36.4346 26.9281 32.5496 27.7451 26.9036C28.2141 23.6686 25.7971 20.5546 22.4961 19.9286L13.2611 17.9496C12.2811 17.7416 11.9531 16.8296 11.8291 16.0536C11.6681 15.0226 11.9851 13.8606 12.8651 13.1216C12.9961 13.0126 13.5161 12.7096 14.1571 12.4286C14.7921 12.1416 15.5621 11.8406 16.3341 11.5126C17.1051 11.1846 17.8861 10.8766 18.5261 10.4496C19.3701 9.88659 19.9631 9.48059 20.2031 8.70959C20.7551 6.91259 21.8701 5.56959 23.4791 4.64659C25.0891 3.72459 27.1141 3.25559 29.0891 3.27659ZM29.1101 1.00059C26.7711 0.979592 24.3751 1.51659 22.3491 2.67759C20.5781 3.68859 19.0841 5.20859 18.3131 7.21859C18.0571 7.87959 17.8381 8.17759 17.3761 8.49459C16.9011 8.81759 16.1771 9.10959 15.4391 9.42159C14.7041 9.73459 13.9341 10.0466 13.2351 10.3586C12.5321 10.6716 11.9281 10.9476 11.4121 11.3856C9.84907 12.6926 9.32907 14.6666 9.58407 16.3906C9.84407 18.1146 10.9481 19.7866 12.7871 20.1716L22.0681 22.1506C24.1631 22.5936 25.7721 24.7136 25.5011 26.5776C24.6001 32.7926 26.4121 37.3016 28.0941 41.1506C28.8131 42.8066 29.4851 44.3276 29.9581 45.8496C27.5781 44.0736 24.7861 42.7136 21.7861 41.5416C20.9581 41.2186 20.5211 40.6616 20.3651 39.7346C20.1681 38.5676 20.2921 37.4066 20.5211 36.4316C21.4901 32.3166 19.2811 26.7236 15.4381 23.0766C14.9171 22.5816 14.1411 22.3956 13.5261 22.5766C12.5371 22.8686 12.1981 23.3896 12.0371 24.1876C11.8081 23.7916 11.2811 23.5676 10.8541 23.6396C10.1871 23.7546 9.71407 24.1506 9.35907 24.6306C8.79107 25.3956 8.78007 26.6096 8.90007 27.8336C7.13507 28.5366 5.41107 29.6146 4.69207 31.4016C4.33707 32.2766 3.70807 33.1926 2.98407 33.6206C2.35907 33.9896 1.70307 34.4166 1.31707 35.1926C0.932066 35.9686 0.900066 36.8966 1.20807 37.9166C1.57707 39.1456 1.86407 40.3856 2.52007 41.1776C3.30707 42.0936 4.49507 42.5576 6.27107 42.8906C7.28607 43.0826 7.79107 43.4156 7.96807 43.6346C8.14007 43.8586 8.19207 44.0306 8.01507 44.5466C5.45807 51.0516 5.93207 54.0356 6.54707 56.4426C7.14607 58.8116 7.74407 60.6556 5.85907 66.3276C3.64607 67.0726 2.11007 69.1196 2.11007 71.6506C2.10507 72.2756 2.61007 72.7866 3.23907 72.7866L31.0201 72.7816C32.5151 72.7816 33.6871 72.0106 34.3951 71.0986C35.1041 70.1876 35.5101 69.1716 35.9581 68.3276L40.7031 59.4476C41.0781 60.9886 41.8181 62.4886 42.9111 63.8386C39.6981 64.9476 37.2551 68.0626 37.2551 71.6506C37.2501 72.2816 37.7601 72.7916 38.3901 72.7866H60.4011C62.3491 72.7866 64.0571 72.1146 65.5321 71.1776C68.8191 72.3746 72.5681 71.8646 75.8031 70.3806C79.1881 68.8286 82.0741 66.3556 83.2041 63.4646C84.1311 61.1046 82.9801 58.8756 81.3081 57.9276C80.4751 57.4546 79.5051 57.2406 78.5431 57.3966C77.5791 57.5576 76.6261 58.1616 76.0741 59.1406C74.2821 62.3236 72.4451 63.5776 70.3911 64.1616C71.6581 58.2186 71.8911 50.8746 67.4751 45.6146L48.6721 23.2356C47.7771 22.1626 46.7351 21.1986 45.3811 20.5586C45.4851 20.2256 45.5781 19.8756 45.6301 19.5116C45.9011 17.6566 45.3591 15.5166 43.7501 13.3806C42.5421 11.7766 41.3231 10.1676 40.1101 8.55759C38.8651 6.91659 37.9471 4.54159 35.9691 3.06859C34.0891 1.67259 31.6141 1.02159 29.1101 1.00059Z" fill="#235A6D"/>
<path fill-rule="evenodd" clip-rule="evenodd" d="M13.9691 24.8646C17.1621 27.9736 18.9531 33.1616 18.3131 35.9166C17.9641 37.3176 17.8241 38.8336 18.1571 40.2496C18.4901 41.6726 19.4061 43.0416 20.9691 43.6506C24.8381 45.1666 28.1881 46.9476 30.6101 49.4016C30.6411 50.2866 30.5671 51.2026 30.3491 52.1726L27.4581 64.1456C26.0011 64.6926 24.6411 65.3746 23.8131 66.5366C23.0101 67.6516 22.5681 69.0116 22.4221 70.5166L14.7811 70.5216C14.7811 69.2606 15.6931 68.1616 16.7611 68.0736L18.4061 68.9946C19.7861 69.7656 20.8341 67.6456 19.4111 66.9636C15.7711 65.2186 14.4111 61.9996 14.8431 59.3686C15.2711 56.7336 17.3751 54.4936 21.7801 54.4936C23.3171 54.5246 23.3171 52.2016 21.7801 52.2286C16.5361 52.2286 13.2031 55.3216 12.6041 59.0046C12.2031 61.4676 12.9791 64.1296 14.8431 66.2756C13.2231 67.0406 12.0421 68.6346 11.6981 70.5206H5.19307C5.61007 69.4366 5.90607 68.1496 6.97407 68.0616C7.42207 68.0246 7.80707 67.7286 7.95307 67.3006C10.0891 61.0456 9.33807 58.2236 8.74507 55.8846C8.15207 53.5456 7.66807 51.6086 10.1411 45.3326C10.1461 45.3216 10.1521 45.3116 10.1571 45.2966C10.5101 44.2806 10.4331 43.0926 9.75607 42.2336C9.08407 41.3736 8.02107 40.9096 6.69307 40.6606C5.10507 40.3636 4.54207 40.0516 4.25007 39.7076C3.95807 39.3686 3.76607 38.6666 3.41107 37.3686C3.11907 36.2806 3.48407 35.9886 4.14607 35.5676C5.47907 34.7186 6.31307 33.4316 6.79707 32.2396C7.29207 30.9996 8.72007 29.8386 10.1721 29.4476C10.7771 29.2916 11.1361 28.6666 10.9751 28.0626C10.7401 27.1876 10.9641 26.6556 11.1521 26.2916L12.3961 27.5246C13.1991 28.7076 14.6631 27.8486 13.9911 26.5816C13.5161 25.8966 13.6141 25.2246 13.9691 24.8646ZM29.0891 3.27659C31.2091 3.29259 33.2451 3.86459 34.6101 4.88059C35.8291 5.78759 36.8181 7.95959 38.3021 9.92759L41.9431 14.7446C43.2711 16.5006 43.5621 17.9736 43.3901 19.1836C43.2141 20.3916 42.5211 21.4026 41.6301 22.0996C40.7391 22.7926 39.6571 23.1266 38.9011 23.0586C38.1461 22.9906 37.7341 22.7666 37.5051 21.8506L34.7811 10.9596C34.4171 9.49059 32.2141 10.0366 32.5781 11.5066L35.3021 22.3916C35.7341 24.1206 37.2031 25.1836 38.7031 25.3186C40.1981 25.4496 41.7341 24.8916 43.0261 23.8866C43.5011 23.5176 43.9431 23.0746 44.3231 22.5786C45.3431 23.0316 46.1191 23.7256 46.9381 24.6986L65.7341 47.0786C69.8291 51.9546 69.5371 59.7776 68.0011 65.5176C67.7971 66.2776 68.4061 67.0066 69.1881 66.9446C72.6311 66.6526 75.6251 64.5486 78.0481 60.2456C78.2771 59.8406 78.5431 59.6936 78.9121 59.6366C79.2771 59.5756 79.7611 59.6686 80.1881 59.9086C81.0431 60.3926 81.6411 61.2366 81.0951 62.6366C80.2981 64.6636 77.8301 66.9656 74.8601 68.3246C71.8871 69.6846 68.5011 70.1216 65.9391 69.0326C65.5681 68.8766 65.1421 68.9236 64.8191 69.1686C63.7041 70.0076 62.1521 70.5236 60.4021 70.5236L39.9911 70.5186C40.5741 68.1066 42.4541 66.0236 44.8241 65.7266C45.5531 66.3036 46.3651 66.8306 47.2721 67.2836C48.6251 67.9556 49.6361 65.9236 48.2811 65.2516C43.9331 63.0796 42.2401 59.1996 42.7661 55.9506C42.8341 55.5596 42.9271 55.1746 43.0471 54.8146C43.9381 52.0856 46.5261 49.9616 51.1761 49.9616C52.7551 50.0286 52.7551 47.6226 51.1761 47.6946C45.6091 47.6946 41.9471 50.6746 40.8071 54.4456L33.9581 67.2626C33.4431 68.2316 33.0421 69.1476 32.6051 69.7106C32.1681 70.2736 31.8491 70.5186 31.0211 70.5186H24.9331C25.0841 69.5386 25.1881 68.5136 25.6571 67.8616C26.3241 66.9296 27.3021 66.2526 28.7721 65.8576C29.1771 65.7526 29.4851 65.4296 29.5841 65.0246L32.5681 52.6856C32.9121 51.2466 32.9171 49.8366 32.8031 48.5186C32.5541 45.5336 31.3301 42.8936 30.1721 40.2426C28.5111 36.4346 26.9281 32.5496 27.7451 26.9036C28.2141 23.6686 25.7971 20.5546 22.4961 19.9286L13.2611 17.9496C12.2811 17.7416 11.9531 16.8296 11.8291 16.0536C11.6681 15.0226 11.9851 13.8606 12.8651 13.1216C12.9961 13.0126 13.5161 12.7096 14.1571 12.4286C14.7921 12.1416 15.5621 11.8406 16.3341 11.5126C17.1051 11.1846 17.8861 10.8766 18.5261 10.4496C19.3701 9.88659 19.9631 9.48059 20.2031 8.70959C20.7551 6.91259 21.8701 5.56959 23.4791 4.64659C25.0891 3.72459 27.1141 3.25559 29.0891 3.27659ZM29.1101 1.00059C26.7711 0.979592 24.3751 1.51659 22.3491 2.67759C20.5781 3.68859 19.0841 5.20859 18.3131 7.21859C18.0571 7.87959 17.8381 8.17759 17.3761 8.49459C16.9011 8.81759 16.1771 9.10959 15.4391 9.42159C14.7041 9.73459 13.9341 10.0466 13.2351 10.3586C12.5321 10.6716 11.9281 10.9476 11.4121 11.3856C9.84907 12.6926 9.32907 14.6666 9.58407 16.3906C9.84407 18.1146 10.9481 19.7866 12.7871 20.1716L22.0681 22.1506C24.1631 22.5936 25.7721 24.7136 25.5011 26.5776C24.6001 32.7926 26.4121 37.3016 28.0941 41.1506C28.8131 42.8066 29.4851 44.3276 29.9581 45.8496C27.5781 44.0736 24.7861 42.7136 21.7861 41.5416C20.9581 41.2186 20.5211 40.6616 20.3651 39.7346C20.1681 38.5676 20.2921 37.4066 20.5211 36.4316C21.4901 32.3166 19.2811 26.7236 15.4381 23.0766C14.9171 22.5816 14.1411 22.3956 13.5261 22.5766C12.5371 22.8686 12.1981 23.3896 12.0371 24.1876C11.8081 23.7916 11.2811 23.5676 10.8541 23.6396C10.1871 23.7546 9.71407 24.1506 9.35907 24.6306C8.79107 25.3956 8.78007 26.6096 8.90007 27.8336C7.13507 28.5366 5.41107 29.6146 4.69207 31.4016C4.33707 32.2766 3.70807 33.1926 2.98407 33.6206C2.35907 33.9896 1.70307 34.4166 1.31707 35.1926C0.932066 35.9686 0.900066 36.8966 1.20807 37.9166C1.57707 39.1456 1.86407 40.3856 2.52007 41.1776C3.30707 42.0936 4.49507 42.5576 6.27107 42.8906C7.28607 43.0826 7.79107 43.4156 7.96807 43.6346C8.14007 43.8586 8.19207 44.0306 8.01507 44.5466C5.45807 51.0516 5.93207 54.0356 6.54707 56.4426C7.14607 58.8116 7.74407 60.6556 5.85907 66.3276C3.64607 67.0726 2.11007 69.1196 2.11007 71.6506C2.10507 72.2756 2.61007 72.7866 3.23907 72.7866L31.0201 72.7816C32.5151 72.7816 33.6871 72.0106 34.3951 71.0986C35.1041 70.1876 35.5101 69.1716 35.9581 68.3276L40.7031 59.4476C41.0781 60.9886 41.8181 62.4886 42.9111 63.8386C39.6981 64.9476 37.2551 68.0626 37.2551 71.6506C37.2501 72.2816 37.7601 72.7916 38.3901 72.7866H60.4011C62.3491 72.7866 64.0571 72.1146 65.5321 71.1776C68.8191 72.3746 72.5681 71.8646 75.8031 70.3806C79.1881 68.8286 82.0741 66.3556 83.2041 63.4646C84.1311 61.1046 82.9801 58.8756 81.3081 57.9276C80.4751 57.4546 79.5051 57.2406 78.5431 57.3966C77.5791 57.5576 76.6261 58.1616 76.0741 59.1406C74.2821 62.3236 72.4451 63.5776 70.3911 64.1616C71.6581 58.2186 71.8911 50.8746 67.4751 45.6146L48.6721 23.2356C47.7771 22.1626 46.7351 21.1986 45.3811 20.5586C45.4851 20.2256 45.5781 19.8756 45.6301 19.5116C45.9011 17.6566 45.3591 15.5166 43.7501 13.3806C42.5421 11.7766 41.3231 10.1676 40.1101 8.55759C38.8651 6.91659 37.9471 4.54159 35.9691 3.06859C34.0891 1.67259 31.6141 1.02159 29.1101 1.00059Z" stroke="#235A6D" stroke-width="1.4" mask="url(#path-2-outside-1_85_826)"/>
<path d="M8.72028 32.667C9.69685 32.6671 10.481 33.4607 10.481 34.4375C10.481 35.4096 9.69756 36.2049 8.72028 36.2051C7.74856 36.2051 6.96344 35.4094 6.96344 34.4375C6.9635 33.4611 7.74811 32.667 8.72028 32.667Z" fill="#235A6D" stroke="#235A6D" stroke-width="0.7"/>
</svg>
