<svg width="15" height="16" viewBox="0 0 15 16" fill="none" xmlns="http://www.w3.org/2000/svg">
<path d="M14.7074 8.70683C15.0978 8.31616 15.0975 7.683 14.7068 7.29262L8.34043 0.931109C7.94975 0.540735 7.31659 0.540978 6.92621 0.931653C6.53584 1.32233 6.53608 1.95549 6.92676 2.34587L12.5858 8.00054L6.93111 13.6596C6.54073 14.0502 6.54098 14.6834 6.93165 15.0738C7.32233 15.4642 7.95549 15.4639 8.34587 15.0732L14.7074 8.70683ZM1.00462 7.005C0.452335 7.00521 0.0047924 7.4531 0.00500485 8.00538C0.0052173 8.55767 0.453105 9.00521 1.00539 9.005L1.00462 7.005ZM14 8L13.9996 7L1.00462 7.005L1.005 8.005L1.00539 9.005L14.0004 9L14 8Z" fill="white"/>
</svg>
