<svg width="70" height="82" viewBox="0 0 70 82" fill="none" xmlns="http://www.w3.org/2000/svg">
<path d="M13.0684 65.1692C14.1103 65.1692 14.9266 65.6892 15.6123 66.4172C16.1212 66.9575 16.5782 67.6338 17.0195 68.3372L17.457 69.0461C18.2117 70.2837 18.9683 71.5112 19.9375 72.4231C20.2664 72.7315 21.0955 73.5152 21.4834 74.8186L21.4844 74.8215C21.6663 75.4528 21.7313 76.1077 21.667 76.7727C21.43 79.247 19.2963 81.2618 16.8115 81.3586C15.6857 81.4015 14.6317 81.0897 13.7207 80.468L13.7178 80.4651C13.3401 80.2008 12.8193 80.1976 12.4277 80.4651C11.6832 80.9835 10.8248 81.2794 9.93262 81.345L9.54785 81.3586H9.33301C6.85079 81.2511 4.71656 79.2482 4.47949 76.7727L4.46191 76.5237C4.43363 75.9443 4.50294 75.3739 4.66211 74.8215L4.66309 74.8196C5.05061 73.5066 5.87831 72.7232 6.17969 72.4426C7.17897 71.5005 7.93557 70.2728 8.68945 69.0364L8.69043 69.0354C9.26948 68.0951 9.85354 67.1352 10.5293 66.4163C11.2125 65.6894 12.0262 65.1692 13.0684 65.1692ZM13.0479 67.4485C12.9118 67.4486 12.7533 67.5014 12.5645 67.6331C12.3745 67.7655 12.1723 67.9656 11.957 68.2268C11.5247 68.7514 11.086 69.4655 10.6172 70.2317C9.85126 71.485 8.95792 72.9461 7.75879 74.0833L7.75586 74.0862C7.50395 74.3187 7.04554 74.7542 6.83398 75.468C6.73646 75.8157 6.70077 76.1806 6.73633 76.5549L6.77344 76.8059C7.01736 78.0463 8.13267 79.0295 9.41211 79.0793H9.41309C10.0381 79.1061 10.6225 78.9371 11.1182 78.592L11.1191 78.5911C12.2785 77.7885 13.8462 77.7882 15.0059 78.5901L15.1992 78.7112C15.6567 78.9724 16.1716 79.0932 16.7129 79.0784C18.0809 79.0159 19.2567 77.9093 19.3896 76.5549C19.4259 76.1732 19.3981 75.8106 19.2939 75.4719L19.293 75.469C19.081 74.7627 18.6198 74.3159 18.4023 74.1174L18.3975 74.1125C17.4757 73.2373 16.7433 72.197 16.1113 71.2024L15.5098 70.2317C15.0422 69.4674 14.5954 68.7528 14.1562 68.2288C13.9374 67.9676 13.7312 67.767 13.5381 67.634C13.3457 67.5016 13.1844 67.4485 13.0479 67.4485Z" fill="#998AFF" stroke="#998AFF" stroke-width="0.7"/>
<path d="M3.20801 62.3636C4.13767 62.2009 5.09762 62.554 5.83398 63.2894L5.95703 63.4163C6.55881 64.0651 6.96351 64.941 7.13281 65.886L7.16602 66.0921C7.46749 68.2168 6.4715 70.2259 4.6582 70.5433L4.65137 70.5452C4.50403 70.5679 4.35597 70.5784 4.20801 70.5784C3.41293 70.5784 2.64736 70.2325 2.03125 69.6165V69.6155C1.36233 68.9565 0.913728 68.0282 0.733398 67.0208V67.0198C0.552479 65.9981 0.667284 64.9734 1.06152 64.1302C1.49265 63.1826 2.27959 62.5261 3.20801 62.3636ZM3.64355 64.6185C3.63714 64.6186 3.63275 64.6193 3.62988 64.6194C3.62447 64.6198 3.62659 64.62 3.63281 64.6185L3.62207 64.6214L3.61035 64.6234C3.51705 64.6401 3.42381 64.6982 3.33398 64.7972C3.2444 64.896 3.17705 65.0151 3.13672 65.1038L3.13574 65.1068C2.95156 65.5002 2.88346 66.0555 2.9834 66.6282C3.08333 67.2006 3.33543 67.7008 3.64551 68.011L3.65234 68.0189C3.71816 68.0885 3.8213 68.1763 3.93848 68.2376C4.05539 68.2987 4.1622 68.3207 4.25586 68.304C4.39527 68.2789 4.60811 68.1244 4.76562 67.7503C4.91669 67.3915 4.9882 66.8857 4.88379 66.3001V66.2991C4.78383 65.7266 4.5309 65.2265 4.2207 64.9163C4.15442 64.85 4.06335 64.7714 3.95996 64.7112C3.85551 64.6505 3.75617 64.6185 3.66797 64.6185C3.65766 64.6185 3.65031 64.6184 3.64355 64.6185Z" fill="#998AFF" stroke="#998AFF" stroke-width="0.7"/>
<path d="M8.7981 55.4297C9.74159 55.3482 10.6663 55.7928 11.3352 56.5821L11.3372 56.585C11.9379 57.306 12.3113 58.2658 12.3967 59.2891C12.5844 61.4992 11.4211 63.529 9.53638 63.7042L9.53735 63.7051C9.53479 63.7055 9.53209 63.7048 9.52954 63.7051C9.52593 63.7055 9.52241 63.7068 9.5188 63.7071L9.51782 63.7061C9.42831 63.7174 9.35161 63.7188 9.28833 63.7188C8.41798 63.7188 7.59476 63.2886 6.97974 62.5528C6.37895 61.8319 6.00462 60.872 5.91919 59.8487L5.90552 59.6407C5.80506 57.5055 6.96201 55.5884 8.7981 55.4297ZM8.98071 57.709C8.84186 57.7234 8.62172 57.8564 8.43579 58.212C8.25525 58.5573 8.14208 59.0564 8.19653 59.6465L8.22388 59.8633C8.30309 60.3601 8.48768 60.7915 8.73462 61.0821L8.7356 61.0831C8.80199 61.1619 8.90204 61.2623 9.01587 61.336C9.13162 61.411 9.2312 61.4392 9.31177 61.4307L9.31958 61.4297C9.45171 61.4189 9.67386 61.2885 9.86353 60.9258C10.0443 60.58 10.159 60.0807 10.1096 59.4913C10.0545 58.9037 9.8538 58.3879 9.57153 58.0557L9.56958 58.0528C9.50694 57.9776 9.41745 57.8859 9.31372 57.8155C9.23593 57.7628 9.16063 57.7295 9.08911 57.7159L9.01782 57.709H8.98071Z" fill="#998AFF" stroke="#998AFF" stroke-width="0.7"/>
<path d="M17.3628 55.4304L17.3618 55.4314C19.254 55.5973 20.4357 57.6315 20.2368 59.8503C20.1511 60.8836 19.7772 61.8325 19.1772 62.5525V62.5535C18.5623 63.2892 17.7388 63.7184 16.8687 63.7185C16.8052 63.7185 16.7279 63.7172 16.6382 63.7058V63.7078C14.744 63.5441 13.5604 61.5079 13.7593 59.2878C13.8449 58.2649 14.2193 57.3054 14.8198 56.5847L14.9478 56.4382C15.6042 55.7299 16.4747 55.3427 17.3628 55.4304ZM17.1382 57.7087C17.046 57.7088 16.9464 57.7455 16.8423 57.8162C16.7906 57.8512 16.7426 57.8915 16.6997 57.9324L16.5874 58.0525C16.2997 58.3996 16.0925 58.9182 16.0474 59.4861L16.0464 59.491C15.9919 60.0811 16.1051 60.5802 16.2856 60.9255C16.4729 61.2837 16.6948 61.4167 16.8335 61.4294C16.9331 61.4369 17.0387 61.4038 17.1479 61.3328C17.2576 61.2614 17.352 61.1649 17.4204 61.0837C17.7075 60.7366 17.9145 60.2184 17.9595 59.6511V59.6462C18.0139 59.0563 17.9007 58.5579 17.7202 58.2126C17.5345 57.8574 17.3152 57.7233 17.1763 57.7087H17.1382Z" fill="#998AFF" stroke="#998AFF" stroke-width="0.7"/>
<path d="M19.0142 65.8882C19.4011 63.6918 21.0578 62.0246 22.9409 62.3638V62.3648C24.8087 62.7035 25.8108 64.8191 25.4233 67.0191V67.0201C25.0662 69.0364 23.6508 70.5884 21.9683 70.5884C21.7985 70.5884 21.642 70.5644 21.5093 70.5455L21.4976 70.5435V70.5425C19.6266 70.2147 18.627 68.086 19.0142 65.8882ZM22.478 64.6285C22.3244 64.6286 22.0757 64.7362 21.8218 65.0328C21.5761 65.3198 21.3584 65.7502 21.2632 66.2984V66.3004C21.159 66.8802 21.23 67.386 21.3813 67.7466C21.5367 68.1167 21.745 68.2733 21.8833 68.3023C22.0214 68.3214 22.2752 68.2447 22.5513 67.9478C22.8175 67.6615 23.0593 67.2122 23.1636 66.6275C23.2682 66.0407 23.1991 65.5317 23.0493 65.1734C22.893 64.7996 22.6836 64.6551 22.5483 64.6353L22.5308 64.6324L22.5132 64.6285C22.5197 64.6301 22.5219 64.6298 22.5161 64.6295C22.5132 64.6293 22.5086 64.6286 22.5024 64.6285C22.4958 64.6284 22.4882 64.6285 22.478 64.6285Z" fill="#998AFF" stroke="#998AFF" stroke-width="0.7"/>
<path d="M47.678 49.8992C48.7199 49.8992 49.5362 50.4192 50.2219 51.1472C50.7308 51.6875 51.1878 52.3638 51.6292 53.0671L52.0667 53.7761C52.8212 55.0137 53.5779 56.2412 54.5471 57.1531C54.875 57.4605 55.706 58.2347 56.094 59.5496H56.093C56.2865 60.1751 56.3521 60.844 56.2659 61.5232C56.0239 63.9927 53.8926 66.0017 51.4114 66.0984L51.3977 66.0994V66.0984H51.1985C50.1595 66.0984 49.1692 65.798 48.3186 65.2058H48.3176C47.9393 64.941 47.4185 64.9389 47.0266 65.2078L47.0256 65.2068C46.1156 65.8379 45.05 66.1631 43.928 66.0984V66.0974C41.5253 65.9909 39.4503 64.1096 39.1077 61.7429L39.0793 61.5125C39.015 60.8476 39.0801 60.1934 39.262 59.5623L39.2629 59.5574C39.6607 58.2459 40.4879 57.463 40.7893 57.1824C41.7789 56.2399 42.5357 55.012 43.2893 53.7761L43.7268 53.0671C44.1681 52.3637 44.6261 51.6875 45.135 51.1472C45.8207 50.4194 46.6362 49.8992 47.678 49.8992ZM47.6584 52.1687C47.5223 52.1687 47.3631 52.2215 47.1741 52.3533C46.9842 52.4857 46.7818 52.685 46.5667 52.946C46.1343 53.4706 45.6957 54.1856 45.2268 54.9519L45.2258 54.9509C44.46 56.2041 43.5683 57.6654 42.3694 58.8025C42.1191 59.0427 41.6545 59.4766 41.4436 60.1882C41.3462 60.5356 41.3115 60.9002 41.3469 61.2742L41.3831 61.5261C41.627 62.7661 42.7418 63.7472 44.0208 63.7976C44.6614 63.8152 45.2352 63.6543 45.7278 63.3113L45.7317 63.3093C46.3205 62.9094 46.999 62.7088 47.678 62.7087C48.3652 62.7087 49.0445 62.9088 49.6252 63.3103H49.6262C50.0679 63.6124 50.5719 63.774 51.1067 63.7976L51.3381 63.7986C52.704 63.7335 53.8774 62.6269 54.01 61.2742C54.0454 60.9111 54.0092 60.5545 53.8792 60.199L53.8733 60.1794C53.6613 59.4729 53.2001 59.0255 52.9827 58.8269L52.9788 58.824C51.7491 57.6666 50.8554 56.2048 50.0891 54.9509C49.6204 54.1848 49.1815 53.4705 48.7493 52.946C48.5341 52.685 48.3318 52.4856 48.1418 52.3533C47.9529 52.2216 47.7946 52.1688 47.6584 52.1687Z" fill="#998AFF" stroke="#998AFF" stroke-width="0.7"/>
<path d="M37.8162 47.0948C39.6991 46.7557 41.3557 48.4213 41.7429 50.6173C41.9238 51.6389 41.8099 52.6638 41.4158 53.507L41.4148 53.506C40.9838 54.4541 40.1971 55.111 39.2683 55.2736L39.2673 55.2726C39.1019 55.3067 38.9417 55.3185 38.7986 55.3185C37.116 55.3185 35.7007 53.7665 35.3435 51.7501C35.1626 50.7284 35.2774 49.7037 35.6716 48.8605C36.1024 47.9134 36.8885 47.2579 37.8162 47.0948ZM38.2322 49.3409L38.2205 49.3429C38.1271 49.3597 38.034 49.4185 37.9441 49.5177C37.8546 49.6165 37.7872 49.7347 37.7468 49.8234V49.8243C37.5838 50.1801 37.5121 50.6508 37.5632 51.131L37.5925 51.337C37.6974 51.9251 37.9341 52.377 38.196 52.6632C38.4672 52.9594 38.7212 53.037 38.8738 53.0128C38.9647 52.9944 39.0548 52.9364 39.1423 52.84C39.2318 52.7413 39.2993 52.623 39.3396 52.5343L39.3425 52.5275C39.534 52.1278 39.5942 51.5752 39.4939 51.0099V51.0089C39.3986 50.4648 39.183 50.0335 38.9382 49.7452C38.6853 49.4474 38.4359 49.339 38.2781 49.339H38.24C38.2408 49.3388 38.2418 49.3383 38.2429 49.338L38.2322 49.3409Z" fill="#998AFF" stroke="#998AFF" stroke-width="0.7"/>
<path d="M43.4062 40.16C45.244 39.9899 46.7136 41.6804 46.9844 43.8006L47.0068 44.0076V44.0096C47.1943 46.2195 46.0312 48.2494 44.1465 48.4246L44.1475 48.4256C44.1449 48.426 44.1422 48.4253 44.1396 48.4256C44.136 48.4259 44.1325 48.4272 44.1289 48.4276L44.1279 48.4266C44.0384 48.4379 43.9617 48.4393 43.8984 48.4393C43.0285 48.4393 42.2057 48.0094 41.5908 47.2742C41.0635 46.6508 40.712 45.8369 40.5752 44.9578L40.5293 44.5779C40.3413 42.3618 41.5121 40.326 43.4062 40.1609V40.16ZM43.5869 42.4393C43.4479 42.4557 43.2301 42.5898 43.0459 42.9422C42.8655 43.2874 42.7524 43.786 42.8066 44.3758C42.8549 44.8902 43.0147 45.3501 43.2432 45.6795L43.3447 45.8123L43.3457 45.8133C43.4122 45.8922 43.5099 45.99 43.6221 46.0623C43.7344 46.1346 43.8379 46.1659 43.9307 46.159C44.0692 46.1475 44.2927 46.0157 44.4824 45.6551C44.664 45.3097 44.7788 44.8109 44.7295 44.2215C44.6748 43.6428 44.485 43.1803 44.2559 42.8709C44.048 42.5903 43.8377 42.4699 43.6885 42.4442L43.6279 42.4393H43.5869Z" fill="#998AFF" stroke="#998AFF" stroke-width="0.7"/>
<path d="M51.9729 40.1504L51.9719 40.1514C53.8641 40.3173 55.0458 42.3515 54.8469 44.5703C54.7612 45.6036 54.3873 46.5524 53.7874 47.2725V47.2734C53.1724 48.0091 52.349 48.4383 51.4788 48.4385C51.4153 48.4385 51.3381 48.4371 51.2483 48.4258V48.4277C49.3541 48.264 48.1705 46.2279 48.3694 44.0078C48.455 42.9742 48.8298 42.0249 49.4299 41.3047L49.5579 41.1582C50.2143 40.4499 51.0849 40.0627 51.9729 40.1504ZM51.7385 42.4287C51.6463 42.4287 51.5468 42.4655 51.4426 42.5361C51.3392 42.6063 51.2494 42.6964 51.1868 42.7715L51.1877 42.7725C50.9 43.1195 50.6929 43.6381 50.6477 44.2061L50.6467 44.208C50.5967 44.7988 50.7129 45.2986 50.8948 45.6445C51.0839 46.0041 51.3059 46.1372 51.4446 46.1494C51.5377 46.1566 51.6424 46.1244 51.7551 46.0518C51.8671 45.9795 51.9641 45.8825 52.0305 45.8037C52.3177 45.4565 52.5246 44.9384 52.5696 44.3711V44.3691C52.6195 43.7784 52.5044 43.2786 52.3225 42.9326C52.135 42.5762 51.9145 42.4429 51.7756 42.4287H51.7385Z" fill="#998AFF" stroke="#998AFF" stroke-width="0.7"/>
<path d="M54.9312 48.0213C55.6215 47.331 56.4996 46.9768 57.3813 47.0692L57.5581 47.0936L57.7319 47.1297C59.492 47.555 60.4075 49.6224 60.0327 51.7498C59.6755 53.7771 58.2603 55.3189 56.5786 55.3192C56.4087 55.3192 56.2515 55.2942 56.1187 55.2752L56.1079 55.2733C55.1761 55.1102 54.4 54.4516 53.9604 53.5067V53.5057C53.5674 52.654 53.452 51.6301 53.6333 50.617C53.8142 49.606 54.2743 48.6782 54.9312 48.0213ZM57.0981 49.3484C56.8989 49.3485 56.6972 49.4945 56.5454 49.6463L56.5425 49.6492C56.2272 49.9563 55.9828 50.4537 55.8823 51.0203V51.0252L55.5386 50.9588L55.8813 51.0252C55.7742 51.5788 55.8397 52.1299 56.0229 52.535C56.0724 52.6335 56.1403 52.7525 56.23 52.8524C56.3166 52.9488 56.4078 53.0093 56.5054 53.032C56.655 53.0503 56.9072 52.9693 57.1772 52.6756C57.4411 52.3885 57.6791 51.9388 57.7837 51.3572C57.8879 50.7775 57.8168 50.2716 57.6655 49.9109C57.5074 49.5343 57.294 49.3783 57.1558 49.3533L57.145 49.3514L57.1333 49.3484C57.1398 49.3501 57.142 49.3498 57.1362 49.3494C57.1333 49.3492 57.129 49.3485 57.1226 49.3484C57.1158 49.3483 57.1085 49.3484 57.0981 49.3484Z" fill="#998AFF" stroke="#998AFF" stroke-width="0.7"/>
<path d="M22.1482 25.6692C23.1902 25.6692 24.0064 26.1892 24.6921 26.9172C25.201 27.4575 25.6581 28.1338 26.0994 28.8372L26.5369 29.5461C27.2915 30.7837 28.0481 32.0112 29.0173 32.9231C29.3247 33.2113 30.0739 33.9099 30.4861 35.0793L30.5642 35.3196V35.3215C30.7461 35.9529 30.8112 36.6077 30.7468 37.2727C30.5097 39.7482 28.3756 41.7512 25.8933 41.8586H25.8914C24.7758 41.9015 23.7118 41.5898 22.8005 40.968L22.7976 40.9651C22.4199 40.7008 21.8992 40.6976 21.5076 40.9651C20.763 41.4835 19.9046 41.7794 19.0125 41.845L18.6277 41.8586H18.4128C15.9306 41.7511 13.7964 39.7482 13.5593 37.2727L13.5417 37.0237C13.5135 36.4443 13.5828 35.8739 13.7419 35.3215L13.7429 35.3196C14.1312 34.0041 15.0029 33.1989 15.2654 32.9465L15.2683 32.9436C16.2581 32.0114 17.0149 30.7833 17.7693 29.5461C18.3437 28.6052 18.9282 27.6437 19.6052 26.9221C20.2895 26.193 21.1056 25.6692 22.1482 25.6692ZM22.1482 27.9592C22.0121 27.9592 21.8534 28.0111 21.6638 28.1428C21.4731 28.2753 21.2699 28.4756 21.0525 28.7366C20.6164 29.2601 20.1703 29.9694 19.6863 30.7307C18.9203 31.9841 18.028 33.4461 16.8289 34.5833L16.8279 34.5823C16.5972 34.8029 16.1147 35.2572 15.9041 35.968C15.8065 36.3157 15.7708 36.6806 15.8064 37.0549L15.8435 37.3059C16.0874 38.5461 17.202 39.5282 18.4812 39.5784C19.1122 39.5958 19.6961 39.4347 20.1882 39.092L20.1892 39.0911C21.3484 38.2887 22.9154 38.2886 24.075 39.0901H24.0759C24.5793 39.4344 25.1634 39.5952 25.782 39.5784C27.1503 39.5162 28.3268 38.4094 28.4597 37.0549C28.496 36.6732 28.4682 36.3106 28.364 35.9719L28.363 35.969C28.1511 35.2628 27.6899 34.816 27.4724 34.6174L27.4685 34.6135C26.5462 33.7454 25.8134 32.7064 25.1814 31.7122L24.5798 30.7415C24.1105 29.9744 23.6741 29.2602 23.2429 28.7356C22.7957 28.1915 22.4381 27.9592 22.1482 27.9592Z" fill="#998AFF" stroke="#998AFF" stroke-width="0.7"/>
<path d="M12.2761 22.8748C14.1588 22.5357 15.8153 24.2007 16.2029 26.3963L16.2361 26.6024C16.5374 28.727 15.5415 30.7362 13.7283 31.0535L13.7214 31.0545C13.5741 31.0772 13.4261 31.0887 13.2781 31.0887C12.4829 31.0886 11.7175 30.742 11.1013 30.1258C10.4443 29.4687 9.98435 28.5413 9.80347 27.5203L9.74976 27.1404C9.65571 26.2546 9.78677 25.378 10.1316 24.6404C10.5624 23.6934 11.3485 23.0379 12.2761 22.8748ZM12.7136 25.1287C12.7072 25.1288 12.7028 25.1295 12.7 25.1297C12.6946 25.13 12.6967 25.1302 12.7029 25.1287L12.6921 25.1317L12.6804 25.1336C12.5871 25.1504 12.4939 25.2084 12.4041 25.3074C12.3145 25.4063 12.2471 25.5253 12.2068 25.6141L12.2058 25.617C12.0233 26.0069 11.9616 26.5606 12.0525 27.1287H12.0535C12.1534 27.7011 12.4054 28.2014 12.7156 28.5115C12.786 28.582 12.8885 28.6685 13.0056 28.7303C13.1206 28.7909 13.2299 28.8166 13.3318 28.8026C13.4712 28.7743 13.6803 28.6196 13.8357 28.2508C13.9868 27.892 14.0582 27.3861 13.9539 26.8006V26.7986C13.8586 26.2546 13.643 25.8232 13.3982 25.535C13.1453 25.2372 12.8959 25.1287 12.738 25.1287C12.7277 25.1287 12.7204 25.1286 12.7136 25.1287Z" fill="#998AFF" stroke="#998AFF" stroke-width="0.7"/>
<path d="M18.0469 15.931C18.9356 15.9156 19.7785 16.3525 20.4053 17.0921L20.4072 17.095C21.008 17.816 21.3814 18.7758 21.4668 19.7991C21.6544 22.0092 20.4912 24.039 18.6064 24.2142L18.6074 24.2151C18.6049 24.2155 18.6022 24.2148 18.5996 24.2151C18.596 24.2155 18.5925 24.2168 18.5889 24.2171L18.5879 24.2161C18.4984 24.2274 18.4217 24.2288 18.3584 24.2288C17.488 24.2288 16.6648 23.7986 16.0498 23.0628C15.449 22.3419 15.0747 21.382 14.9893 20.3587L14.9756 20.1507C14.8751 18.0155 16.0321 16.0984 17.8682 15.9398L18.0469 15.931ZM18.0518 18.2191C17.9181 18.233 17.6978 18.3655 17.5098 18.723C17.3279 19.0688 17.2122 19.5675 17.2666 20.1566L17.2939 20.3734C17.3732 20.8701 17.5577 21.3015 17.8047 21.5921L17.8057 21.5931C17.874 21.6742 17.9715 21.7741 18.083 21.847C18.1952 21.9202 18.2955 21.9497 18.3828 21.9407L18.3896 21.9398C18.5218 21.9289 18.7439 21.7985 18.9336 21.4359C19.1144 21.09 19.229 20.5907 19.1797 20.0013C19.1246 19.4138 18.9239 18.8979 18.6416 18.5657L18.6396 18.5628C18.577 18.4877 18.4884 18.3959 18.3848 18.3255C18.3068 18.2726 18.2309 18.2395 18.1592 18.2259L18.0879 18.2191H18.0518Z" fill="#998AFF" stroke="#998AFF" stroke-width="0.7"/>
<path d="M26.4526 15.9304L26.4517 15.9314C27.3926 16.014 28.2243 16.6029 28.7407 17.5027C29.2127 18.315 29.4017 19.3293 29.3169 20.3474C29.2316 21.3709 28.8581 22.3314 28.2573 23.0525L28.2563 23.0535C27.6414 23.7891 26.818 24.2185 25.9478 24.2185C25.8844 24.2185 25.8078 24.2171 25.7183 24.2058V24.2078C23.8252 24.0442 22.6422 22.0202 22.8501 19.7898C22.9355 18.7554 23.3091 17.8053 23.9097 17.0847L24.0376 16.9382C24.694 16.2299 25.5646 15.8427 26.4526 15.9304ZM26.2085 18.2087C26.1163 18.2087 26.0167 18.2455 25.9126 18.3162C25.8092 18.3864 25.7193 18.4765 25.6567 18.5515C25.3689 18.8986 25.1619 19.418 25.1167 19.9861V19.988C25.0667 20.5787 25.1819 21.0786 25.3638 21.4246C25.5537 21.7858 25.7779 21.9192 25.9165 21.9304H25.9946C26.0676 21.9224 26.1445 21.8913 26.2261 21.8376C26.3354 21.7656 26.4301 21.6673 26.5005 21.5837C26.7876 21.2366 26.9945 20.7184 27.0396 20.1511C27.0852 19.5754 26.9723 19.0199 26.7554 18.6443L26.7544 18.6423C26.7046 18.5553 26.6278 18.443 26.5308 18.3533C26.4353 18.265 26.3402 18.2171 26.2466 18.2087H26.2085Z" fill="#998AFF" stroke="#998AFF" stroke-width="0.7"/>
<path d="M28.0935 26.3975C28.4716 24.1973 30.1502 22.5466 32.0095 22.874L32.0085 22.875C33.891 23.2026 34.8799 25.3327 34.4929 27.5293C34.1358 29.5567 32.7206 31.0984 31.0388 31.0986C30.8689 31.0986 30.7117 31.0746 30.5789 31.0557L30.5681 31.0537C29.6363 30.8906 28.8602 30.2311 28.4207 29.2861V29.2852C28.0277 28.4337 27.9123 27.4103 28.0935 26.3975ZM31.5964 25.1289H31.5583C31.4048 25.1289 31.1561 25.2357 30.9021 25.5322C30.6564 25.8192 30.4387 26.2505 30.3435 26.7988L30.3425 26.7998C30.2432 27.3595 30.3102 27.9169 30.4978 28.335C30.5382 28.4235 30.6049 28.5413 30.6941 28.6396C30.7822 28.7368 30.8731 28.7944 30.9646 28.8125C31.1155 28.8314 31.3679 28.751 31.6375 28.459C31.9008 28.1736 32.1392 27.7245 32.2439 27.1377V27.1367C32.3481 26.5568 32.2771 26.051 32.1257 25.6904C31.9676 25.3138 31.7542 25.1577 31.616 25.1328L31.6052 25.1309L31.5935 25.1279C31.5946 25.1282 31.5956 25.1287 31.5964 25.1289Z" fill="#998AFF" stroke="#998AFF" stroke-width="0.7"/>
<path d="M56.7578 10.3992C57.7997 10.3992 58.616 10.9193 59.3018 11.6472C59.9803 12.3676 60.5669 13.33 61.1465 14.2761H61.1475C61.8552 15.4368 62.5643 16.5884 63.4492 17.4792L63.6279 17.6541L63.6309 17.657C63.9123 17.9283 64.7854 18.7335 65.1738 20.0496L65.1748 20.0515C65.3567 20.6828 65.4208 21.3377 65.3564 22.0027C65.1194 24.478 62.986 26.4799 60.5039 26.5876L60.5049 26.5886C59.395 26.6424 58.3205 26.3185 57.4111 25.698L57.4072 25.6951C57.0295 25.4309 56.5087 25.4274 56.1172 25.6951L56.1182 25.696C55.3735 26.2145 54.5144 26.5094 53.6221 26.575L53.2383 26.5886H53.0234C50.5412 26.4812 48.407 24.4782 48.1699 22.0027L48.1514 21.7546C48.1213 21.1774 48.1832 20.605 48.3535 20.0466C48.7423 18.7326 49.6138 17.9286 49.876 17.6765L49.8779 17.6736C50.8678 16.7414 51.6254 15.5134 52.3799 14.2761C52.9545 13.3299 53.5386 12.3686 54.2158 11.6482C54.9004 10.92 55.716 10.3993 56.7578 10.3992ZM56.7578 12.6892C56.4677 12.6895 56.1104 12.9221 55.6602 13.4656C55.2258 13.99 54.7851 14.702 54.3047 15.4656C53.5393 16.718 52.6471 18.1773 51.4492 19.3132L51.4482 19.3123C51.2176 19.5328 50.7341 19.987 50.5234 20.698L50.5225 20.7019C50.4167 21.0458 50.3813 21.4092 50.417 21.7849L50.4531 22.0359C50.697 23.276 51.8118 24.258 53.0908 24.3083C53.7123 24.3259 54.306 24.1644 54.7979 23.822L54.7988 23.821C55.9581 23.0185 57.5259 23.0183 58.6855 23.8201L58.8789 23.9412C59.3364 24.2024 59.8513 24.3231 60.3926 24.3083C61.7608 24.246 62.9374 23.1394 63.0703 21.7849C63.1066 21.4031 63.0778 21.0406 62.9736 20.7019L62.9727 20.698C62.7609 19.9837 62.2812 19.5277 62.083 19.3484L62.0781 19.3435C61.1558 18.4754 60.423 17.4364 59.791 16.4421L59.1895 15.4714C58.7202 14.7044 58.2837 13.9901 57.8525 13.4656C57.4054 12.9216 57.0476 12.6892 56.7578 12.6892Z" fill="#998AFF" stroke="#998AFF" stroke-width="0.7"/>
<path d="M46.8887 7.61359C47.828 7.45128 48.7775 7.80426 49.5137 8.53937L49.6367 8.66632C50.2385 9.3151 50.6432 10.191 50.8125 11.136C50.994 12.1399 50.8793 13.1646 50.4863 14.0159C50.0554 14.9643 49.2677 15.6208 48.3389 15.7835L48.3379 15.7825C48.1721 15.8168 48.0115 15.8284 47.8682 15.8284C46.1861 15.8284 44.7717 14.277 44.4043 12.2718L44.4033 12.2708C44.222 11.2578 44.3374 10.2338 44.7305 9.38214V9.38116C45.1709 8.43431 45.9578 7.77635 46.8877 7.61359H46.8887ZM47.3018 9.85089L47.29 9.85284C47.1966 9.86961 47.1036 9.92846 47.0137 10.0276C46.9241 10.1264 46.8567 10.2446 46.8164 10.3333V10.3343C46.6321 10.7364 46.5729 11.2913 46.6631 11.847L46.708 12.0618C46.8272 12.5471 47.0371 12.9266 47.2666 13.178C47.5046 13.4389 47.7267 13.5279 47.8779 13.5286L47.9385 13.5237C48.0312 13.5065 48.1237 13.4483 48.2129 13.3499C48.3023 13.2513 48.3689 13.1329 48.4092 13.0443L48.4121 13.0374C48.6036 12.6378 48.6638 12.0852 48.5635 11.5198C48.4636 10.9573 48.211 10.4564 47.9004 10.1458C47.8341 10.0796 47.7428 10.0018 47.6396 9.94171C47.5354 9.88104 47.4367 9.84904 47.3486 9.84894H47.3096L47.3018 9.85089Z" fill="#998AFF" stroke="#998AFF" stroke-width="0.7"/>
<path d="M52.468 0.660522C53.3508 0.584232 54.22 0.959173 54.8782 1.66833L55.0071 1.81482L55.1174 1.95251C55.6538 2.65574 55.9866 3.5596 56.0667 4.51892C56.2549 6.73592 55.0839 8.77382 53.1887 8.93787L53.1877 8.93591C53.1019 8.94731 53.0143 8.94861 52.9583 8.94861C51.1742 8.94861 49.7891 7.21738 49.5901 5.08142L49.5891 5.07849C49.4009 2.86136 50.5726 0.824357 52.468 0.660522ZM52.6604 2.94861C52.5217 2.96302 52.3018 3.09644 52.1145 3.45349C51.9326 3.80048 51.8165 4.3028 51.8665 4.8988C51.9167 5.49237 52.1079 5.95613 52.3401 6.25916C52.5751 6.56581 52.821 6.67368 52.9963 6.66833C53.1353 6.65364 53.3552 6.52019 53.5422 6.16443C53.7237 5.81916 53.8385 5.32095 53.7893 4.73181L53.762 4.51501C53.6828 4.01784 53.4983 3.58602 53.2512 3.29529L53.2493 3.29236C53.1867 3.21731 53.0979 3.12631 52.9944 3.05603C52.8903 2.98543 52.7906 2.94869 52.6985 2.94861H52.6604Z" fill="#998AFF" stroke="#998AFF" stroke-width="0.7"/>
<path d="M61.0479 0.660156C62.9421 0.82386 64.1257 2.85988 63.9268 5.08008C63.8518 5.98433 63.5558 6.82375 63.0811 7.50195L62.8672 7.7832C62.2523 8.51892 61.4288 8.94908 60.5586 8.94922C60.4952 8.94922 60.4179 8.94787 60.3281 8.93652V8.9375C60.3249 8.93722 60.3216 8.93584 60.3184 8.93555C60.3152 8.93512 60.3118 8.936 60.3086 8.93555V8.93457C58.4256 8.75865 57.251 6.73991 57.4492 4.50781L57.4717 4.30078C57.7425 2.17908 59.2132 0.501905 61.0479 0.660156ZM60.8281 2.93848C60.6796 2.93851 60.4366 3.05219 60.1973 3.375C59.9669 3.68569 59.7765 4.14722 59.7266 4.71875V4.7207C59.6722 5.30989 59.7872 5.80837 59.9707 6.15332C60.1589 6.50714 60.3832 6.64307 60.5293 6.6582C60.6274 6.66238 60.7346 6.62893 60.8467 6.55762C60.9031 6.52171 60.9556 6.47992 61.002 6.4375L61.1201 6.31348C61.4072 5.96632 61.6142 5.44814 61.6592 4.88086V4.87891C61.7091 4.28846 61.5939 3.78925 61.4121 3.44336C61.2249 3.08741 61.0052 2.95305 60.8662 2.93848H60.8281Z" fill="#998AFF" stroke="#998AFF" stroke-width="0.7"/>
<path d="M62.7034 11.1275C63.091 8.92894 64.7483 7.27715 66.6282 7.60406C67.5019 7.75696 68.2389 8.34594 68.6897 9.19781L68.7756 9.37164V9.37262C69.1686 10.2242 69.284 11.2474 69.1028 12.2603C68.7454 14.2874 67.3303 15.8284 65.6487 15.8287C65.4788 15.8287 65.3216 15.8047 65.1887 15.7857L65.178 15.7838C64.2462 15.6207 63.47 14.9611 63.0305 14.0162V14.0152C62.6376 13.1637 62.5222 12.1403 62.7034 11.1275ZM66.2063 9.85895H66.1682C66.0147 9.85896 65.7659 9.96578 65.512 10.2623C65.2663 10.5493 65.0485 10.9806 64.9534 11.5289L64.9524 11.5298C64.8648 12.0236 64.9 12.5095 65.0393 12.899L65.1047 13.0601L65.1067 13.064C65.147 13.1527 65.2144 13.2709 65.304 13.3697C65.392 13.4668 65.483 13.5244 65.5745 13.5425C65.7192 13.5612 65.972 13.482 66.2444 13.188C66.509 12.9022 66.7493 12.4533 66.8538 11.8677C66.9532 11.3071 66.8865 10.7504 66.7004 10.3443L66.6995 10.3433C66.6591 10.2547 66.5925 10.1363 66.5032 10.0377C66.4134 9.93858 66.3201 9.87969 66.2268 9.86285L66.2151 9.8609L66.2034 9.85797C66.2045 9.85825 66.2055 9.85877 66.2063 9.85895Z" fill="#998AFF" stroke="#998AFF" stroke-width="0.7"/>
</svg>
