<svg width="26" height="43" viewBox="0 0 26 43" fill="none" xmlns="http://www.w3.org/2000/svg">
<path d="M20.6475 0.900391C20.9516 0.900391 21.226 1.09185 21.3291 1.37988C21.432 1.66795 21.3429 1.99024 21.1074 2.18457L18.377 4.4375C18.1478 4.6984 17.9824 4.96665 17.8711 5.23828C20.0045 4.37276 21.8969 5.06971 23.0615 6.16406C25.0719 8.04845 25.9477 12.0947 24.0371 15.5254C24.4318 16.4166 24.7211 17.3597 24.8857 18.3438C24.9931 18.9741 25.0488 19.6302 25.0488 20.292C25.0488 20.9101 24.9988 21.5342 24.8994 22.1484C24.6648 23.6274 24.156 25.033 23.3809 26.3271L16.1562 38.4082L20.3418 40.7422L20.4434 40.8105C20.662 40.9875 20.7613 41.278 20.6895 41.5576V41.5586C20.6049 41.8782 20.3166 42.0996 19.9873 42.0996H5.96094C5.63038 42.0995 5.34248 41.8786 5.25977 41.5586L5.23828 41.4375C5.21328 41.1566 5.35532 40.8823 5.60742 40.7422L9.79199 38.4102L2.56641 26.3291C1.79313 25.037 1.28146 23.6295 1.04688 22.1504C0.9495 21.5382 0.900397 20.9121 0.900391 20.2939C0.900391 19.6345 0.953143 18.9763 1.0625 18.3438C1.23279 17.3121 1.54608 16.3233 1.97266 15.3906C0.0668739 11.9641 0.94058 7.9181 2.94824 6.03223C4.07935 4.96734 5.90559 4.27665 7.97852 5.0459C7.87141 4.83657 7.73099 4.6299 7.55176 4.42773L4.83398 2.18555L4.75195 2.10645C4.57707 1.91031 4.52144 1.63158 4.61133 1.37988C4.7143 1.09198 4.98673 0.900476 5.29297 0.900391H20.6475ZM8.74609 40.6504H17.1953L14.957 39.4033H10.9844L8.74609 40.6504ZM2.65039 22.7607C2.89288 23.7507 3.27711 24.6973 3.80762 25.584L11.2051 37.9531H14.7334L22.1309 25.584L22.1602 25.5352C22.676 24.6624 23.052 23.7328 23.29 22.7607H17.1094C16.2376 24.1911 14.6614 25.0928 12.9697 25.0928C11.2802 25.0926 9.70484 24.191 8.83496 22.7607H2.65039ZM12.9707 16.8574C11.6789 16.8574 10.4799 17.6116 9.91699 18.7793V18.7803C9.79584 19.0293 9.54158 19.1895 9.2627 19.1895H2.41504C2.38462 19.4512 2.3457 19.8038 2.3457 20.2939C2.34572 20.6979 2.37465 21.0098 2.40625 21.3115H9.2627C9.54118 21.3115 9.79568 21.4689 9.91699 21.7207C10.48 22.8885 11.6789 23.6426 12.9707 23.6426C14.2665 23.6425 15.4655 22.8885 16.0283 21.7207L16.0801 21.6309C16.2135 21.4336 16.4379 21.3116 16.6816 21.3115H23.5352C23.5605 21.0838 23.5947 20.744 23.5947 20.2939C23.5947 19.7958 23.5592 19.4682 23.5264 19.1895H16.6826C16.4041 19.1895 16.1496 19.0311 16.0283 18.7793C15.4654 17.6117 14.2645 16.8574 12.9707 16.8574ZM9.39648 4.63867C10.1446 6.37258 9.43605 8.12793 8.41504 9.59375C7.36733 11.0978 5.9569 12.3417 5.39355 12.9688L5.36816 12.9971H5.36328C4.0363 14.3345 3.12276 15.9552 2.6709 17.7402H8.83398C9.70386 16.3098 11.2791 15.4082 12.9688 15.4082C14.6603 15.4082 16.2374 16.3098 17.1074 17.7402H23.2686C22.7349 15.6189 21.8017 14.3341 20.7432 13.1953C19.6675 12.0381 18.4416 11.0132 17.3994 9.42188C17.356 9.37471 17.3016 9.31483 17.2529 9.18848C16.4 7.80846 15.8763 6.19592 16.5459 4.63867H9.39648ZM20.5811 6.40332C19.8537 6.21804 18.9034 6.24527 17.7852 6.89844C17.8646 7.21898 17.9928 7.54387 18.1602 7.87402C18.9515 7.39201 19.6301 7.29089 20.1875 7.38379C20.7644 7.48 21.1983 7.78002 21.4814 8.04688C22.4839 8.98715 23.1057 10.9502 22.5107 13.0068C22.7504 13.3089 22.9782 13.6218 23.1885 13.9463C24.2021 11.3433 23.4986 8.55954 22.0713 7.2207L22.0518 7.20215C21.8131 6.98385 21.3036 6.5874 20.5811 6.40332ZM8.18652 6.74219C7.07817 6.10596 6.13652 6.08463 5.41602 6.27148C4.67821 6.46289 4.16408 6.87468 3.93848 7.08691L3.86426 7.15625C2.48397 8.52706 1.82012 11.2692 2.82617 13.8301C3.03726 13.5102 3.2648 13.2007 3.50781 12.9014C2.90609 10.854 3.53989 8.83751 4.52832 7.90723H4.5293C4.8143 7.64052 5.24865 7.34053 5.8252 7.24512C6.38128 7.15323 7.05689 7.25524 7.84473 7.73633C8.00477 7.40061 8.12172 7.06797 8.18652 6.74219ZM19.9854 8.82324C19.7481 8.77698 19.4072 8.81182 18.9336 9.09375C19.5299 9.88568 20.2805 10.6754 21.0586 11.4307C21.1382 11.5081 21.2109 11.58 21.2783 11.6465C21.34 10.5487 20.9861 9.57372 20.4844 9.10352C20.3947 9.01863 20.2396 8.87289 19.9854 8.82324ZM7.0918 8.97363C6.61345 8.68217 6.26948 8.64282 6.0293 8.6875C5.77222 8.73535 5.61476 8.88027 5.52539 8.96484C5.01116 9.44917 4.65423 10.4504 4.73438 11.5703C5.42618 10.8914 6.34054 10.0019 7.0918 8.97363ZM8.32715 3.18848H17.6113L18.6289 2.34961H7.30957L8.32715 3.18848Z" fill="#B5903D" stroke="#B5903D" stroke-width="0.2"/>
</svg>
