<svg width="41" height="42" viewBox="0 0 41 42" fill="none" xmlns="http://www.w3.org/2000/svg">
<path d="M31.3838 0.849579C33.903 0.84961 36.218 1.85709 37.9004 3.68552C39.5939 5.52282 40.5234 8.04431 40.5234 10.7832C40.5234 13.6796 39.4649 16.2361 37.1172 19.0634C35.9345 20.4858 32.5085 23.6639 26.9502 28.499H26.9492C25.8613 29.4373 24.5182 29.9257 23.1553 29.9258C22.7284 29.9258 22.3024 29.8699 21.8818 29.7724C21.4187 30.8904 20.3274 31.6854 19.041 31.6855H15.5205L15.5117 32.0605H18.1338C21.0893 32.0605 23.3984 34.4535 23.3984 37.4931V39.5166C23.3983 40.4169 22.6666 41.1493 21.7666 41.1494H2.48145C1.58203 41.1492 0.849776 40.4173 0.849609 39.5166V37.4931C0.849609 34.4536 3.15931 32.0606 6.11426 32.0605H8.67188V31.6855H5.93652C4.23334 31.6855 2.8488 30.3003 2.84863 28.5976V23.7558C2.84863 20.4833 4.49421 17.5241 6.96094 15.7119C6.17383 14.1099 5.7637 12.4903 5.76367 10.7832C5.76367 8.04481 6.69282 5.52287 8.38672 3.68552C10.0688 1.85725 12.3884 0.849579 14.9141 0.849579C16.7673 0.849613 18.4759 1.44242 19.9893 2.60544C20.4555 2.96434 21.0539 3.61384 21.6396 4.31247C22.1765 4.95283 22.7091 5.64404 23.1328 6.20798C23.5234 5.69795 24.056 5.01837 24.6006 4.37204C25.2004 3.66024 25.8236 2.97789 26.29 2.6113L26.291 2.61032C27.8113 1.44225 29.5237 0.849579 31.3838 0.849579ZM6.11426 33.8691C4.14766 33.8692 2.6582 35.4182 2.6582 37.4931V39.3662L21.6143 39.3408L21.5908 37.4951V37.4931C21.5908 35.4177 20.101 33.8691 18.1338 33.8691H15.3213C14.8817 34.98 13.8939 35.8015 12.7002 35.998L12.7012 35.999C12.4952 36.0346 12.2908 36.0517 12.0898 36.0517C10.6672 36.0515 9.40526 35.1869 8.88184 33.8691H6.11426ZM10.4805 32.9638C10.6862 33.8232 11.5139 34.3704 12.3994 34.2158H12.4004C12.9846 34.1198 13.4845 33.6891 13.6758 33.1318L13.7402 30.4443C13.6187 30.4643 13.4562 30.4906 13.2881 30.5136C12.9963 30.5537 12.6666 30.5918 12.4863 30.5918C11.7974 30.5917 11.122 30.4735 10.4805 30.2558V32.9638ZM12.1055 15.6806C8.02292 15.9077 4.65723 19.513 4.65723 23.7558V28.5976C4.65723 29.3029 5.23088 29.8768 5.93652 29.8769H8.67285V29.3564C8.67224 29.3555 8.67158 29.3545 8.6709 29.3535C8.65714 29.3335 8.63589 29.3066 8.61035 29.2763C8.55836 29.2147 8.49793 29.1526 8.46191 29.122C7.06857 27.9399 6.26953 26.2138 6.26953 24.3877C6.26956 23.4802 6.47109 22.5701 6.85352 21.7529V21.7519C7.0891 21.2508 7.5918 20.9218 8.14941 20.8906L10.4902 20.542C11.8162 20.3443 13.1598 20.3454 14.4834 20.5429L16.8018 20.8906H16.8008C17.3581 20.9215 17.86 21.2514 18.0947 21.7529C18.7418 23.134 18.8533 24.7196 18.4111 26.2158C17.9541 27.7653 16.9215 29.0126 15.5664 29.7754L15.5645 29.8769H19.041C19.7461 29.8767 20.3201 29.3031 20.3203 28.5976V23.7558C20.3203 19.376 16.7342 15.6756 12.502 15.6689L12.1055 15.6806ZM14.2148 22.333C13.2118 22.1811 12.1957 22.1626 11.1875 22.2754L10.7559 22.332H10.7539C10.7528 22.3322 10.7511 22.3327 10.749 22.333C10.7445 22.3337 10.7373 22.3346 10.7285 22.3359C10.7109 22.3385 10.685 22.3418 10.6523 22.3466C10.5865 22.3564 10.4927 22.3709 10.3799 22.3877C10.154 22.4212 9.8524 22.4659 9.55078 22.5107C9.08884 22.5793 8.6171 22.6481 8.42188 22.6767C8.1965 23.2133 8.07717 23.801 8.07715 24.3877C8.07715 25.6822 8.64358 26.9053 9.63184 27.7441C10.6329 28.5934 11.9098 28.9413 13.2324 28.7216C14.8903 28.4477 16.2093 27.2916 16.6777 25.705C16.9782 24.6866 16.9217 23.618 16.5254 22.6767C16.5187 22.6757 16.5115 22.6749 16.5039 22.6738C16.4378 22.6639 16.3429 22.6506 16.2305 22.6338C16.0056 22.6001 15.7066 22.5553 15.4082 22.5107C15.1097 22.4662 14.8114 22.422 14.5879 22.3886C14.4761 22.372 14.3826 22.3573 14.3174 22.3476C14.285 22.3428 14.2596 22.3395 14.2422 22.3369C14.2337 22.3356 14.2272 22.3346 14.2227 22.334C14.2204 22.3336 14.2179 22.3331 14.2168 22.333H14.2148ZM31.3838 2.65817C29.9334 2.65825 28.5938 3.12053 27.4014 4.03708L27.4023 4.03806C27.0149 4.34275 26.3961 5.03341 25.7568 5.80856C25.4391 6.19386 25.1189 6.59696 24.8232 6.97751L24.0361 8.01364C23.8166 8.30699 23.4672 8.4473 23.1279 8.44724C22.7889 8.44708 22.4407 8.30705 22.2236 8.01657L22.2227 8.01462C21.6801 7.27077 21.0284 6.41588 20.4189 5.67575C19.8059 4.93123 19.2463 4.31531 18.8867 4.03806C17.6946 3.12196 16.3582 2.65821 14.9141 2.65817C12.8978 2.65817 11.0527 3.45899 9.7168 4.91013C8.33699 6.40674 7.57227 8.49071 7.57227 10.7832C7.57229 12.1785 7.8892 13.469 8.51855 14.7871C9.73203 14.2036 11.0695 13.8625 12.4727 13.8603L12.9629 13.875C17.9975 14.1543 22.1279 18.5698 22.1279 23.7558V27.9707C23.3898 28.3114 24.7399 28.0164 25.7656 27.1318C31.1898 22.4135 34.6293 19.2261 35.7256 17.9072C37.8014 15.4077 38.7148 13.2132 38.7148 10.7822C38.7148 8.49019 37.9503 6.40571 36.5713 4.90915C35.2348 3.45797 33.3935 2.65817 31.3838 2.65817Z" fill="#B5903D" stroke="#B5903D" stroke-width="0.3"/>
</svg>
