<svg width="68" height="41" viewBox="0 0 68 41" fill="none" xmlns="http://www.w3.org/2000/svg">
<path d="M60.7949 1.2793H60.8027C64.3021 1.30806 67.1258 4.1712 67.0996 7.6709L66.9111 33.7686C66.8902 36.6712 64.9156 39.1048 62.2441 39.8408C61.6935 39.9929 61.1173 40.0654 60.5215 40.0654H60.5205L7.19727 39.6865C3.80736 39.6587 1.0516 36.9716 0.90625 33.6221L0.900391 33.2959L1.08887 7.2002C1.09671 5.50781 1.77246 3.91756 2.97168 2.72363L3.20215 2.50684C4.37655 1.45797 5.88077 0.888191 7.47168 0.900391L60.7949 1.2793ZM7.46484 2.60059C6.21825 2.58806 5.0499 3.06719 4.16895 3.93555C3.28049 4.80884 2.79175 5.97259 2.78418 7.21191L2.5957 33.3096C2.57548 35.8682 4.64448 37.9639 7.20605 37.9844L60.5293 38.3633H60.5303C61.7689 38.3758 62.9444 37.8963 63.8252 37.0283L63.8262 37.0273C64.7144 36.1541 65.2034 34.9911 65.2109 33.752L65.3994 7.65332C65.4195 5.09469 63.3498 2.99968 60.7881 2.97949L7.46582 2.60059H7.46484Z" fill="#B5903D" stroke="#B5903D" stroke-width="0.2"/>
<path d="M38.7087 7.83823C39.6014 7.8437 40.4488 8.20209 41.0807 8.8392C41.7109 9.47728 42.0485 10.3256 42.0485 11.2249V11.2259C42.0431 12.1264 41.6834 12.9652 41.0466 13.597C40.6346 14.0091 40.1326 14.2977 39.5798 14.4466V14.4456C39.2819 14.5281 38.974 14.5687 38.6589 14.5687H38.4167L38.4294 14.555C37.6223 14.4946 36.8649 14.1458 36.2878 13.5638C35.6577 12.9257 35.321 12.0774 35.321 11.1781L35.3259 11.0111C35.3721 10.1799 35.7245 9.39755 36.322 8.80502C36.96 8.1749 37.8083 7.83823 38.7077 7.83823H38.7087ZM38.6921 9.52573C38.537 9.52574 38.384 9.54318 38.238 9.58627H38.236C37.9731 9.65669 37.7317 9.79124 37.5319 9.98373L37.5095 10.0072C37.1881 10.3212 37.0105 10.7392 37.0104 11.181V11.183C37.0032 11.6242 37.1752 12.0426 37.4899 12.3646C37.8039 12.6859 38.222 12.8626 38.6638 12.8626H38.6647C39.5892 12.8673 40.3379 12.1305 40.3454 11.2064V11.2054C40.3527 10.7641 40.1806 10.3458 39.8659 10.0238C39.5519 9.70245 39.1339 9.52573 38.6921 9.52573Z" fill="#B5903D" stroke="#B5903D" stroke-width="0.2"/>
<path d="M47.2264 7.8844L55.9657 7.94885L55.9745 7.9303H56.0409C56.8782 7.93536 57.6757 8.25128 58.2928 8.81604L58.4139 8.93225C59.0435 9.57768 59.3806 10.4255 59.3807 11.3248V11.3258C59.3675 12.867 58.3179 14.1628 56.8993 14.5533L56.9003 14.5543C56.6096 14.637 56.3012 14.6764 55.9862 14.6764H55.9852L47.1786 14.6119C46.2856 14.6066 45.4376 14.2473 44.8055 13.61C44.1755 12.9719 43.8387 12.1236 43.8387 11.2242L43.8436 11.0573C43.8898 10.226 44.2422 9.44372 44.8397 8.8512C45.4778 8.22107 46.3261 7.8844 47.2255 7.8844H47.2264ZM47.2186 9.59241C46.7773 9.58514 46.359 9.75716 46.037 10.0719C45.7158 10.3859 45.5389 10.804 45.5389 11.2457V11.2467C45.5317 11.6881 45.7037 12.1063 46.0184 12.4283C46.2931 12.7094 46.6471 12.8802 47.0272 12.9186L47.1923 12.9264L55.9999 12.9908H56.0526C56.9527 12.9678 57.6733 12.244 57.6805 11.3375V11.3365C57.6878 10.8952 57.5158 10.477 57.201 10.1549C56.887 9.83359 56.4691 9.65686 56.0272 9.65686H56.0262L47.2196 9.59241H47.2186Z" fill="#B5903D" stroke="#B5903D" stroke-width="0.2"/>
<path d="M36.1196 17.0677L48.0844 17.1527H48.0854C48.5493 17.1614 48.9261 17.5377 48.9262 18.0101V18.0121C48.9203 18.4033 48.6517 18.7262 48.2983 18.8226C48.2238 18.8434 48.1504 18.8529 48.0707 18.8529H48.0698L36.1049 18.7679H36.101C35.6372 18.759 35.2612 18.382 35.2612 17.9095V17.9076C35.2701 17.4432 35.6546 17.0678 36.1186 17.0677H36.1196Z" fill="#B5903D" stroke="#B5903D" stroke-width="0.2"/>
<path d="M36.0813 22.7319L51.5237 22.8422H51.5247C51.9886 22.851 52.3655 23.228 52.3655 23.7006V23.7016C52.3596 24.0929 52.091 24.4156 51.7375 24.5121L51.7385 24.5131C51.6639 24.534 51.5898 24.5424 51.51 24.5424H51.509L36.0667 24.4321H36.0627C35.5989 24.4231 35.2229 24.0461 35.2229 23.5737V23.5717C35.2318 23.108 35.6079 22.7319 36.0803 22.7319H36.0813Z" fill="#B5903D" stroke="#B5903D" stroke-width="0.2"/>
<path d="M36.0374 28.3879L57.4564 28.5373L57.5403 28.5432C57.9641 28.5933 58.2951 28.9517 58.2952 29.3947V29.3967C58.2893 29.7879 58.0207 30.1108 57.6673 30.2072C57.6302 30.2176 57.5935 30.2259 57.556 30.2307L57.4398 30.2375L36.0208 30.0881H36.0189C35.5551 30.0792 35.179 29.7022 35.179 29.2297V29.2278C35.188 28.7633 35.5724 28.388 36.0364 28.3879H36.0374Z" fill="#B5903D" stroke="#B5903D" stroke-width="0.2"/>
<path d="M17.025 22.7347C17.4563 22.3609 17.9806 22.445 18.358 22.5033L18.3571 22.5042C18.5013 22.5252 18.6508 22.5482 18.8121 22.5482H18.816V22.5492C18.9748 22.5564 19.1197 22.5322 19.2672 22.5111L19.3805 22.4945V22.5003C19.7442 22.4531 20.2105 22.4157 20.6002 22.7591L20.6012 22.7601C20.8748 23.0054 21.0055 23.3553 21.0055 23.7933V23.7943C21.0013 24.2575 20.7817 24.6485 20.5006 24.9603C20.2196 25.272 19.8706 25.5107 19.5914 25.6732C19.4966 25.7285 19.4157 25.7698 19.3463 25.807L19.3453 25.808C19.2523 25.8558 19.177 25.8883 19.1315 25.9085L19.1305 25.9076C19.093 25.9279 19.052 25.942 19.0172 25.9505C19.0152 25.9512 19.0133 25.9519 19.0114 25.9525L19.0094 25.9535L19.0084 25.9525C18.9298 25.9758 18.8528 25.9769 18.7858 25.9769C18.6725 25.9769 18.5525 25.9627 18.4362 25.9076V25.9066C18.3949 25.8873 18.3158 25.8488 18.2301 25.8021L18.2272 25.8001C18.1636 25.762 18.0837 25.7158 17.9938 25.6644L17.9918 25.6634C17.7166 25.4969 17.3726 25.2518 17.0963 24.9359C16.82 24.6198 16.6061 24.2251 16.6061 23.7621C16.6061 23.3309 16.742 22.9748 17.025 22.7347Z" fill="#B5903D" stroke="#B5903D" stroke-width="0.2"/>
<path d="M16.5924 17.911C17.2346 17.9111 17.6774 18.5064 17.6774 19.2382V19.2401C17.6719 19.5002 17.6151 19.7509 17.5035 19.9628L17.5016 19.9618C17.3529 20.2419 17.1176 20.4348 16.8444 20.5145L16.8414 20.5155C16.7559 20.5376 16.6695 20.5516 16.5739 20.5516C16.1777 20.5515 15.8396 20.3169 15.65 19.9491V19.9471C15.5443 19.7356 15.4899 19.4853 15.4899 19.2245V19.2225C15.4953 18.9627 15.5515 18.7126 15.6627 18.5009C15.8538 18.1299 16.1989 17.911 16.5924 17.911Z" fill="#B5903D" stroke="#B5903D" stroke-width="0.2"/>
<path d="M21.0701 17.9393C21.7123 17.9393 22.1551 18.5346 22.1551 19.2664V19.2684C22.1496 19.5285 22.0928 19.7791 21.9813 19.991C21.8327 20.2738 21.595 20.4675 21.3201 20.5477L21.3172 20.5486C21.2316 20.5707 21.1454 20.5858 21.0496 20.5858C20.6533 20.5857 20.3154 20.3502 20.1258 19.9822L20.1248 19.9813C20.02 19.7717 19.9565 19.5208 19.9647 19.2557C19.9688 19.0606 20.0019 18.871 20.0652 18.699L20.1385 18.534C20.3192 18.1836 20.6439 17.9719 21.0037 17.949L21.0086 17.9393H21.0701Z" fill="#B5903D" stroke="#B5903D" stroke-width="0.2"/>
<path d="M17.4336 11.2541L20.3369 11.2746L20.3359 11.2755C20.5185 11.2756 20.7091 11.2953 20.8789 11.3078H20.8799L23.0664 11.3205C25.1571 11.3337 26.977 12.685 27.6035 14.6779L27.6084 14.6925V14.7013L29.7432 21.5353C29.9563 22.2125 29.8404 22.9247 29.416 23.4923L29.415 23.4914C29.1203 23.8964 28.7105 24.1695 28.2471 24.299L28.2441 24.3C28.0534 24.3483 27.849 24.3752 27.6445 24.3752H27.6436C26.7381 24.3674 25.9491 23.8181 25.624 22.9923L25.4092 23.8761C24.9825 26.4956 23.0286 28.5777 20.5557 29.2599H20.5547C19.979 29.4143 19.3749 29.4923 18.7607 29.4923H18.7598C15.4801 29.4661 12.6666 27.0094 12.1953 23.7716V23.7707L11.9883 22.882C11.7292 23.5227 11.1952 23.9947 10.5479 24.173L10.5459 24.174C10.3552 24.2223 10.1507 24.2492 9.94629 24.2492H9.94531C9.28778 24.2416 8.68036 23.9537 8.26855 23.4435L8.18848 23.338C7.78087 22.7657 7.66998 22.0467 7.88867 21.3771L10.127 14.5578C10.78 12.5726 12.6181 11.2536 14.7109 11.2668L16.8896 11.2794C17.0668 11.2666 17.2455 11.2541 17.4326 11.2541H17.4336ZM16.6807 12.9357C16.5622 12.9383 16.4577 12.9406 16.3828 12.9425C16.3456 12.9435 16.3156 12.9449 16.2949 12.9455H16.2627L16.2588 12.9464L14.6992 12.9328C14.6845 12.9328 14.6687 12.9353 14.6455 12.9386C14.6241 12.9417 14.5947 12.9464 14.5635 12.9464V12.9455C13.6434 12.9789 12.8162 13.4137 12.2676 14.1017L12.2666 14.1027C12.1052 14.3039 11.9647 14.5348 11.8574 14.7814C11.8135 14.8858 11.7742 14.968 11.7422 15.0617L11.2344 16.6076L9.50488 21.88L9.50391 21.883C9.44947 22.0316 9.47432 22.1856 9.56738 22.3185H9.56836C9.66116 22.4457 9.80138 22.5196 9.95605 22.5197H9.95801C10.1691 22.5239 10.3589 22.3894 10.4229 22.1847L11.2451 19.6193L11.7148 18.1525L12.334 16.2336V16.2326C12.4254 15.9642 12.6402 15.7809 12.8877 15.7003L13.0088 15.6681C13.1335 15.6433 13.2682 15.6424 13.4062 15.6877H13.4072C13.5145 15.7243 13.6109 15.7768 13.6943 15.8507C13.953 16.0716 14.0663 16.4203 13.9551 16.7599L13.0039 19.7287L13.8594 23.4064H13.8584C13.8625 23.4203 13.8698 23.4498 13.8721 23.4796H13.874C14.2126 25.9102 16.3172 27.75 18.7656 27.7707C18.8916 27.7707 19.0207 27.7665 19.1426 27.7589L19.3564 27.7394C21.5521 27.4898 23.3824 25.7758 23.7227 23.5509L23.7246 23.5382L23.8213 23.5656L23.7256 23.5382L23.7266 23.5353C23.727 23.5333 23.7269 23.5304 23.7275 23.5275C23.7287 23.5218 23.7303 23.5153 23.7314 23.5089C23.7326 23.5025 23.7336 23.4957 23.7344 23.4914C23.7347 23.4894 23.7352 23.4876 23.7354 23.4865V23.4845L23.7373 23.4777L24.6426 19.8107L24.2676 18.5812L23.7305 16.8332V16.8322C23.6284 16.4909 23.7461 16.1429 24.0059 15.9298L24.0078 15.9279C24.0948 15.8612 24.19 15.8121 24.2969 15.7755L24.3125 15.7707H24.3818C24.5258 15.7436 24.6788 15.749 24.8203 15.8019H24.8193C25.0656 15.8829 25.2804 16.0664 25.3633 16.3439L25.9512 18.2746L26.4023 19.7414L27.1914 22.3195V22.3214C27.2514 22.5267 27.4346 22.6669 27.6494 22.6671H27.6543C27.8057 22.6732 27.9461 22.6 28.0391 22.4796L28.0439 22.4699L28.0488 22.4562L28.0576 22.4445C28.1533 22.3212 28.181 22.1674 28.1318 22.0158V22.0148L26.4746 16.7169H26.4736L25.9932 15.1681L25.9385 15.0324C25.9186 14.987 25.8961 14.9378 25.876 14.8869L25.7949 14.7043C25.708 14.5253 25.6034 14.3559 25.4805 14.1994H25.4795C24.9359 13.4987 24.1168 13.0561 23.2021 13.0099V13.0109H23.1816V13.0099C23.1359 13.0038 23.1088 12.9972 23.0713 12.9972H23.0684L22.5479 12.9845H21.5107L20.3379 12.9455V12.9464L17.4346 12.925C17.2103 12.925 16.9178 12.9306 16.6807 12.9357Z" fill="#B5903D" stroke="#B5903D" stroke-width="0.2"/>
</svg>
